<svg viewBox="0 0 781.26 255.44" xmlns:xlink="http://www.w3.org/1999/xlink" xmlns="http://www.w3.org/2000/svg" data-name="Layer 1" id="Layer_1"><defs><style>.cls-1{fill:#1f2533;}.cls-2{fill:#231f20;}.cls-3{clip-path:url(#clip-path);}.cls-4{clip-path:url(#clip-path-2);}</style><clipPath id="clip-path"><rect height="10" width="9" y="119" x="248.26" class="cls-1"></rect></clipPath><clipPath id="clip-path-2"><rect height="1" width="1" x="129.26" class="cls-1"></rect></clipPath></defs><path d="M101.58,84.24H139c19.2,0,30,8.16,30,21.72,0,9.12-4.8,15.6-11.64,18.72,9.72,2.64,16,9.72,16,20.88,0,14.4-10.8,22.68-31.92,22.68H101.58v-9.36h39.35c13.56,0,20.88-4.32,20.88-14.28s-7.32-14.28-20.88-14.28H101.58V121h36.35c12.36,0,19.56-4.56,19.56-13.68s-7.2-13.68-19.56-13.68H101.58Z" class="cls-2"></path><path d="M192.41,168.24v-84h11.4v84Z" class="cls-2"></path><path d="M222.41,126.24c0-24.6,19-43,44.52-43s44.52,18.24,44.52,43-19,43-44.52,43S222.41,150.84,222.41,126.24Zm77.52,0c0-18.84-14-32.64-33-32.64s-33,13.8-33,32.64,14,32.64,33,32.64S299.93,145.08,299.93,126.24Z" class="cls-2"></path><path d="M390.53,120.6V84.24h11.4v84h-11.4V130.56h-49v37.68h-11.4v-84h11.4V120.6Z" class="cls-2"></path><path d="M426.53,168.24H414.65l38.16-84h11.4l38.16,84h-12L458.45,96Z" class="cls-2"></path><path d="M507.05,126.24c0-24.84,19-43,44.4-43,12.84,0,24.12,4.44,31.68,13l-7.32,7.32a31.82,31.82,0,0,0-23.88-10c-19.2,0-33.36,13.8-33.36,32.64s14.16,32.64,33.36,32.64a31.5,31.5,0,0,0,23.88-10.08l7.32,7.32c-7.56,8.64-18.84,13.08-31.8,13.08C526,169.2,507.05,151.08,507.05,126.24Z" class="cls-2"></path><path d="M673.73,168.24H660.29l-32.52-37.8-15.72,16.08v21.72h-11.4v-84h11.4v47.64l46.2-47.64h13.08L635.45,122Z" class="cls-2"></path><path d="M698.21,168.24h-11.4v-84h9.36l51,63.6V84.24h11.4v84h-9.36l-51-63.6Z" class="cls-2"></path><path d="M101.58,84.24H139c19.2,0,30,8.16,30,21.72,0,9.12-4.8,15.6-11.64,18.72,9.72,2.64,16,9.72,16,20.88,0,14.4-10.8,22.68-31.92,22.68H101.58v-9.36h39.35c13.56,0,20.88-4.32,20.88-14.28s-7.32-14.28-20.88-14.28H101.58V121h36.35c12.36,0,19.56-4.56,19.56-13.68s-7.2-13.68-19.56-13.68H101.58Z" class="cls-1"></path><path d="M192.41,168.24v-84h11.4v84Z" class="cls-1"></path><path d="M222.41,126.24c0-24.6,19-43,44.52-43s44.52,18.24,44.52,43-19,43-44.52,43S222.41,150.84,222.41,126.24Zm77.52,0c0-18.84-14-32.64-33-32.64s-33,13.8-33,32.64,14,32.64,33,32.64S299.93,145.08,299.93,126.24Z" class="cls-1"></path><path d="M390.53,120.6V84.24h11.4v84h-11.4V130.56h-49v37.68h-11.4v-84h11.4V120.6Z" class="cls-1"></path><path d="M426.53,168.24H414.65l38.16-84h11.4l38.16,84h-12L458.45,96Z" class="cls-1"></path><path d="M507.05,126.24c0-24.84,19-43,44.4-43,12.84,0,24.12,4.44,31.68,13l-7.32,7.32a31.82,31.82,0,0,0-23.88-10c-19.2,0-33.36,13.8-33.36,32.64s14.16,32.64,33.36,32.64a31.5,31.5,0,0,0,23.88-10.08l7.32,7.32c-7.56,8.64-18.84,13.08-31.8,13.08C526,169.2,507.05,151.08,507.05,126.24Z" class="cls-1"></path><path d="M673.73,168.24H660.29l-32.52-37.8-15.72,16.08v21.72h-11.4v-84h11.4v47.64l46.2-47.64h13.08L635.45,122Z" class="cls-1"></path><path d="M698.21,168.24h-11.4v-84h9.36l51,63.6V84.24h11.4v84h-9.36l-51-63.6Z" class="cls-1"></path><g data-name="34b30cc155" id="_34b30cc155"><path d="M6.38,130.13A6.38,6.38,0,1,0,0,123.76,6.37,6.37,0,0,0,6.38,130.13Z" class="cls-1"></path><path d="M2.86,144.21a7.52,7.52,0,0,0-.59,1.21,6.47,6.47,0,0,0-.34,1.31,6,6,0,0,0-.09,1.34A7.57,7.57,0,0,0,2,149.41a7.45,7.45,0,0,0,.44,1.28,5.87,5.87,0,0,0,.68,1.16,6.64,6.64,0,0,0,.89,1,7.78,7.78,0,0,0,1.07.82,7.24,7.24,0,0,0,1.22.59,7.1,7.1,0,0,0,1.3.34,6.81,6.81,0,0,0,1.35.09,7.7,7.7,0,0,0,1.34-.18,7.07,7.07,0,0,0,1.27-.44,6.25,6.25,0,0,0,1.17-.68,6.93,6.93,0,0,0,1.83-2,6.24,6.24,0,0,0,.59-1.22,7.34,7.34,0,0,0,.35-1.3,6.8,6.8,0,0,0,.08-1.35,6.17,6.17,0,0,0-.18-1.34A6.37,6.37,0,0,0,15,145a6.8,6.8,0,0,0-.67-1.17,7.07,7.07,0,0,0-.89-1,6.68,6.68,0,0,0-1.08-.82,6.16,6.16,0,0,0-1.21-.59A6.49,6.49,0,0,0,9.82,141,6.66,6.66,0,0,0,8.48,141a6.09,6.09,0,0,0-1.34.18,6.68,6.68,0,0,0-1.28.44,6.36,6.36,0,0,0-1.16.67,6.65,6.65,0,0,0-1.84,2Z" class="cls-1"></path><path d="M8.34,171a7.75,7.75,0,0,0,.14,1.45,8.15,8.15,0,0,0,.42,1.38,7.5,7.5,0,0,0,.69,1.28,7.08,7.08,0,0,0,2,2,7.5,7.5,0,0,0,1.28.69,8.44,8.44,0,0,0,1.38.42,7.75,7.75,0,0,0,1.45.14,7.62,7.62,0,0,0,1.43-.14,8,8,0,0,0,1.39-.42,7.5,7.5,0,0,0,1.28-.69,8.1,8.1,0,0,0,1.12-.91,7.7,7.7,0,0,0,.92-1.13,6.82,6.82,0,0,0,.68-1.28A6.66,6.66,0,0,0,23,172.4a7,7,0,0,0,.14-1.45,6.87,6.87,0,0,0-.14-1.43,6.57,6.57,0,0,0-.42-1.39,7.15,7.15,0,0,0-.68-1.28,7.43,7.43,0,0,0-2-2,6.82,6.82,0,0,0-1.28-.68,6.57,6.57,0,0,0-1.39-.42,6.87,6.87,0,0,0-1.43-.14,7,7,0,0,0-1.45.14,7.51,7.51,0,0,0-2.66,1.1,7.13,7.13,0,0,0-1.12.92,7.5,7.5,0,0,0-.92,1.12,7.9,7.9,0,0,0-.69,1.28,8,8,0,0,0-.42,1.39A7.62,7.62,0,0,0,8.34,171Z" class="cls-1"></path><path d="M27.14,200.14a7.87,7.87,0,1,0-7.87-7.87A7.87,7.87,0,0,0,27.14,200.14Z" class="cls-1"></path><path d="M40.93,202.81a8.37,8.37,0,0,0-1.55.46,8.27,8.27,0,0,0-1.44.76,8.21,8.21,0,0,0-2.29,2.26,9.81,9.81,0,0,0-.78,1.42,8.89,8.89,0,0,0-.47,1.55,7.43,7.43,0,0,0-.17,1.62,7.9,7.9,0,0,0,.14,1.61,9.32,9.32,0,0,0,.46,1.56,8.51,8.51,0,0,0,.76,1.43,8.78,8.78,0,0,0,1,1.26,8.15,8.15,0,0,0,1.25,1,7.94,7.94,0,0,0,1.43.78,8.19,8.19,0,0,0,1.55.48,7.78,7.78,0,0,0,1.61.17,8.77,8.77,0,0,0,1.61-.15,8.37,8.37,0,0,0,1.55-.46,8.23,8.23,0,0,0,1.44-.76,8.78,8.78,0,0,0,1.26-1,7.84,7.84,0,0,0,1-1.25,8.25,8.25,0,0,0,1.25-3,9.67,9.67,0,0,0,.17-1.61,8.69,8.69,0,0,0-.15-1.61,8.49,8.49,0,0,0-.47-1.56,8.21,8.21,0,0,0-1.77-2.69,8.31,8.31,0,0,0-1.25-1,7.49,7.49,0,0,0-1.42-.77,8.46,8.46,0,0,0-1.55-.49,8.49,8.49,0,0,0-3.23,0Z" class="cls-1"></path><path d="M52.7,225.24a9.35,9.35,0,0,0,0,1.67,8.14,8.14,0,0,0,.29,1.65,9.06,9.06,0,0,0,.6,1.57,8.1,8.1,0,0,0,.89,1.4,8.37,8.37,0,0,0,1.16,1.22,9.26,9.26,0,0,0,1.36,1,8.48,8.48,0,0,0,1.54.68,8.84,8.84,0,0,0,1.62.36,8.58,8.58,0,0,0,1.68.05,9.35,9.35,0,0,0,1.65-.29A7.93,7.93,0,0,0,65,233.9a8.68,8.68,0,0,0,1.42-.89,7.81,7.81,0,0,0,1.21-1.16,7.59,7.59,0,0,0,1-1.36,8,8,0,0,0,.68-1.53,8.18,8.18,0,0,0,.36-1.63,7.78,7.78,0,0,0,0-1.67,8.37,8.37,0,0,0-.28-1.65,8.34,8.34,0,0,0-1.5-3,8.24,8.24,0,0,0-2.52-2.18,9.13,9.13,0,0,0-1.53-.68,8.94,8.94,0,0,0-1.63-.36,8.46,8.46,0,0,0-1.67,0,8.16,8.16,0,0,0-1.64.29,7.27,7.27,0,0,0-1.57.6,9,9,0,0,0-1.41.89,8.84,8.84,0,0,0-1.21,1.16,8.51,8.51,0,0,0-1.64,2.89A8.53,8.53,0,0,0,52.7,225.24Z" class="cls-1"></path><path d="M73.86,237.71a8.52,8.52,0,0,0,.65,3.3,9.28,9.28,0,0,0,.8,1.49,8.39,8.39,0,0,0,1.07,1.31,9,9,0,0,0,1.31,1.07,9.28,9.28,0,0,0,1.49.8,9.43,9.43,0,0,0,1.62.49,8.72,8.72,0,0,0,1.69.16,8.51,8.51,0,0,0,1.67-.16,9.27,9.27,0,0,0,1.63-.49,8.78,8.78,0,0,0,1.48-.8,8.49,8.49,0,0,0,1.31-1.07,7.86,7.86,0,0,0,1.07-1.31,8.6,8.6,0,0,0,.81-1.49,10.4,10.4,0,0,0,.49-1.62,8.69,8.69,0,0,0,.16-1.68A8.54,8.54,0,0,0,91,236a10.2,10.2,0,0,0-.49-1.63,8.51,8.51,0,0,0-.81-1.48,8.43,8.43,0,0,0-2.38-2.38,7.55,7.55,0,0,0-1.48-.8,8.38,8.38,0,0,0-3.3-.66,9.58,9.58,0,0,0-1.69.16,9.46,9.46,0,0,0-1.62.5,8.56,8.56,0,0,0-3.87,3.18,9.18,9.18,0,0,0-.8,1.48,8.61,8.61,0,0,0-.65,3.31Z" class="cls-1"></path><path d="M97.05,244.72a8.42,8.42,0,0,0,.17,1.66A8.79,8.79,0,0,0,97.7,248a9.18,9.18,0,0,0,.8,1.48,8.25,8.25,0,0,0,1.06,1.3,7.73,7.73,0,0,0,1.3,1.06,8.46,8.46,0,0,0,1.48.8,8.28,8.28,0,0,0,1.61.48,8.29,8.29,0,0,0,3.34,0,8.28,8.28,0,0,0,1.61-.48,8.46,8.46,0,0,0,1.48-.8,7.73,7.73,0,0,0,1.3-1.06,8.25,8.25,0,0,0,1.06-1.3,8.46,8.46,0,0,0,.8-1.48,8.79,8.79,0,0,0,.48-1.61,8.42,8.42,0,0,0,.17-1.66A8.55,8.55,0,0,0,114,243a8.69,8.69,0,0,0-.48-1.6,8.12,8.12,0,0,0-.8-1.48,7.89,7.89,0,0,0-1.06-1.31,8.85,8.85,0,0,0-1.3-1.06,8.42,8.42,0,0,0-1.48-.79,8.3,8.3,0,0,0-1.61-.49,8.29,8.29,0,0,0-3.34,0,8.3,8.3,0,0,0-1.61.49,8.42,8.42,0,0,0-1.48.79,8.85,8.85,0,0,0-1.3,1.06A7.89,7.89,0,0,0,98.5,240a8.78,8.78,0,0,0-.8,1.48,8.69,8.69,0,0,0-.48,1.6A8.55,8.55,0,0,0,97.05,244.72Z" class="cls-1"></path><path d="M123.76,241.13a8.54,8.54,0,0,0-1.05,1.27,8.75,8.75,0,0,0-.77,1.45,8.63,8.63,0,0,0-.48,1.57,8.48,8.48,0,0,0,0,3.28,8.63,8.63,0,0,0,.48,1.57,8.75,8.75,0,0,0,.77,1.45A8.73,8.73,0,0,0,125,254a8.37,8.37,0,0,0,1.45.77,9.49,9.49,0,0,0,1.57.48,9,9,0,0,0,1.64.15,8.91,8.91,0,0,0,1.63-.15,9.21,9.21,0,0,0,1.57-.48,8.84,8.84,0,0,0,1.46-.77,8.5,8.5,0,0,0,2.31-2.32,8.75,8.75,0,0,0,.77-1.45,8.63,8.63,0,0,0,.48-1.57,8.49,8.49,0,0,0,0-3.28,8.63,8.63,0,0,0-.48-1.57,8.75,8.75,0,0,0-.77-1.45,8.5,8.5,0,0,0-2.31-2.32,8.84,8.84,0,0,0-1.46-.77,8.39,8.39,0,0,0-1.57-.48,8.91,8.91,0,0,0-1.63-.15,9,9,0,0,0-1.64.15,8.63,8.63,0,0,0-1.57.48,8.37,8.37,0,0,0-1.45.77A8.54,8.54,0,0,0,123.76,241.13Z" class="cls-1"></path><path d="M148,239a7.36,7.36,0,0,0-1,1.22,8.14,8.14,0,0,0-.74,1.4,7.5,7.5,0,0,0-.46,1.51,7.88,7.88,0,0,0,0,3.16,7.4,7.4,0,0,0,.46,1.52,8.52,8.52,0,0,0,.74,1.4,7.79,7.79,0,0,0,1,1.22,7.89,7.89,0,0,0,1.22,1,8,8,0,0,0,2.92,1.21,8.3,8.3,0,0,0,1.58.15,8.45,8.45,0,0,0,1.58-.15,8.78,8.78,0,0,0,1.51-.46,8.14,8.14,0,0,0,2.63-1.76,8.32,8.32,0,0,0,1-1.22,7.88,7.88,0,0,0,.75-1.4,8.07,8.07,0,0,0,.46-1.52,7.88,7.88,0,0,0,0-3.16,8.2,8.2,0,0,0-.46-1.51,7.54,7.54,0,0,0-.75-1.4,8.11,8.11,0,0,0-3.63-3,8,8,0,0,0-1.51-.46,8.45,8.45,0,0,0-1.58-.15,8.3,8.3,0,0,0-1.58.15,8.07,8.07,0,0,0-1.52.46,8.9,8.9,0,0,0-1.4.74A8,8,0,0,0,148,239Z" class="cls-1"></path><path d="M175.11,230.22a8,8,0,0,0-1.42.49,7.62,7.62,0,0,0-2.44,1.76,7.64,7.64,0,0,0-.92,1.2,7.8,7.8,0,0,0-.67,1.36,6.68,6.68,0,0,0-.38,1.46,7,7,0,0,0-.1,1.51,7.52,7.52,0,0,0,.2,1.5,8,8,0,0,0,.49,1.43,8.58,8.58,0,0,0,.76,1.31,7.7,7.7,0,0,0,1,1.13,6.78,6.78,0,0,0,1.21.92,7.67,7.67,0,0,0,1.35.66,7.5,7.5,0,0,0,1.46.39,7.66,7.66,0,0,0,1.51.09,6.86,6.86,0,0,0,1.5-.2,7.1,7.1,0,0,0,1.43-.49,7.4,7.4,0,0,0,1.31-.75,7.73,7.73,0,0,0,2-2.21,7,7,0,0,0,.66-1.35,7.51,7.51,0,0,0,.28-4.47,7.75,7.75,0,0,0-.48-1.43,8.18,8.18,0,0,0-.77-1.31,7.71,7.71,0,0,0-1-1.14,7.58,7.58,0,0,0-1.2-.91,7.47,7.47,0,0,0-1.36-.67,9,9,0,0,0-1.46-.39,8.45,8.45,0,0,0-1.51-.09A7.72,7.72,0,0,0,175.11,230.22Z" class="cls-1"></path><path d="M197.31,219.09a8,8,0,0,0-1.39.31,7.58,7.58,0,0,0-1.3.58,7.51,7.51,0,0,0-2.15,1.85,7.39,7.39,0,0,0-.76,1.2,7.93,7.93,0,0,0-.51,1.33,7.32,7.32,0,0,0-.24,1.4,6.74,6.74,0,0,0,0,1.42,7.18,7.18,0,0,0,.31,1.39,6.6,6.6,0,0,0,.58,1.3,6.75,6.75,0,0,0,.82,1.16,8,8,0,0,0,1,1,8.46,8.46,0,0,0,1.21.76,7.61,7.61,0,0,0,1.33.51,6.62,6.62,0,0,0,1.4.24,6.74,6.74,0,0,0,1.42,0,6.67,6.67,0,0,0,1.39-.32,7,7,0,0,0,2.46-1.39,6.83,6.83,0,0,0,1-1,7.2,7.2,0,0,0,.77-1.2,7.93,7.93,0,0,0,.51-1.33,7.32,7.32,0,0,0,.24-1.4,8.4,8.4,0,0,0,0-1.42,7.12,7.12,0,0,0-.89-2.69,7.84,7.84,0,0,0-.82-1.16,6.8,6.8,0,0,0-1-1,7.2,7.2,0,0,0-1.2-.77,7.93,7.93,0,0,0-1.33-.51,7.45,7.45,0,0,0-2.82-.21Z" class="cls-1"></path><path d="M210.2,210.12a6.94,6.94,0,0,0,.19,2.62,7.27,7.27,0,0,0,.47,1.23,8,8,0,0,0,.71,1.11,5.85,5.85,0,0,0,.91.95,6.59,6.59,0,0,0,1.08.76,6.28,6.28,0,0,0,1.21.54,6.8,6.8,0,0,0,1.28.29,7.19,7.19,0,0,0,1.31,0,6.42,6.42,0,0,0,1.31-.23,7.07,7.07,0,0,0,1.23-.47,6.52,6.52,0,0,0,1.11-.71,5.85,5.85,0,0,0,1-.91,6.35,6.35,0,0,0,.76-1.08,5.84,5.84,0,0,0,.53-1.2,7,7,0,0,0,.3-1.28,6.47,6.47,0,0,0,0-1.32,5.7,5.7,0,0,0-.22-1.3,8,8,0,0,0-.47-1.23,6.76,6.76,0,0,0-2.7-2.83,6.44,6.44,0,0,0-1.2-.53,6.34,6.34,0,0,0-1.29-.29,7,7,0,0,0-2.62.19,7.17,7.17,0,0,0-2.34,1.18,8.17,8.17,0,0,0-.95.91,7.26,7.26,0,0,0-.76,1.08,6.83,6.83,0,0,0-.53,1.21A6.25,6.25,0,0,0,210.2,210.12Z" class="cls-1"></path><path d="M232.22,198.36a6.1,6.1,0,1,0-6.1-6.09A6.1,6.1,0,0,0,232.22,198.36Z" class="cls-1"></path><path d="M242.39,165.67a5.36,5.36,0,0,0-3.38,2.44,5.21,5.21,0,0,0-.74,2,5.41,5.41,0,0,0,.07,2.12,5.53,5.53,0,0,0,2.44,3.38,5.56,5.56,0,0,0,2,.74,5.41,5.41,0,0,0,2.12-.08,5.13,5.13,0,0,0,1.93-.88,5.39,5.39,0,0,0,2.19-3.54,5.41,5.41,0,0,0-.08-2.12,5.22,5.22,0,0,0-.88-1.93,5.46,5.46,0,0,0-5.66-2.12Z" class="cls-1"></path><path d="M246.26,146a4.74,4.74,0,0,0,6.19,6.19,4.6,4.6,0,0,0,1.54-1,4.84,4.84,0,0,0,1-1.54,4.76,4.76,0,0,0,0-3.63,4.84,4.84,0,0,0-1-1.54,4.6,4.6,0,0,0-1.54-1,4.73,4.73,0,0,0-3.62,0,4.7,4.7,0,0,0-2.57,2.56Z" class="cls-1"></path><rect height="10" width="9" y="119" x="248.26" class="cls-1"></rect><g class="cls-3"><path d="M253,127.78a4,4,0,1,0-4-4A4,4,0,0,0,253,127.78Z" class="cls-1"></path></g><path d="M250.64,103a3.34,3.34,0,1,0-3.34-3.33A3.33,3.33,0,0,0,250.64,103Z" class="cls-1"></path><path d="M243.63,79.22A2.66,2.66,0,1,0,241,76.56,2.66,2.66,0,0,0,243.63,79.22Z" class="cls-1"></path><path d="M232.21,57.31a2.07,2.07,0,1,0-2.06-2.06A2.07,2.07,0,0,0,232.21,57.31Z" class="cls-1"></path><path d="M215.32,36.56a1.73,1.73,0,0,0,.11.6,1.43,1.43,0,0,0,.34.5,1.5,1.5,0,0,0,.51.35,1.67,1.67,0,0,0,.59.11,1.73,1.73,0,0,0,.6-.11,1.46,1.46,0,0,0,.5-.35,1.43,1.43,0,0,0,.34-.5,1.54,1.54,0,0,0,0-1.19,1.57,1.57,0,0,0-.34-.51,1.41,1.41,0,0,0-.5-.33,1.53,1.53,0,0,0-.6-.12,1.48,1.48,0,0,0-.59.12,1.45,1.45,0,0,0-.51.33,1.57,1.57,0,0,0-.34.51A1.71,1.71,0,0,0,215.32,36.56Z" class="cls-1"></path><path d="M198.19,22.36a1.14,1.14,0,1,0-1.14-1.14A1.14,1.14,0,0,0,198.19,22.36Z" class="cls-1"></path><path d="M176.88,10.62a.81.81,0,0,0,.81-.81.82.82,0,0,0-.81-.82.82.82,0,0,0-.82.82A.82.82,0,0,0,176.88,10.62Z" class="cls-1"></path><path d="M153.74,3.39a.59.59,0,0,0,.59-.59.6.6,0,0,0-.59-.59.59.59,0,0,0,0,1.18Z" class="cls-1"></path><rect height="1" width="1" x="129.26" class="cls-1"></rect><g class="cls-4"><path d="M129.68.9a.45.45,0,0,0,.45-.45.45.45,0,1,0-.9,0A.45.45,0,0,0,129.68.9Z" class="cls-1"></path></g><path d="M105.62,3.33a.53.53,0,0,0,.53-.53.54.54,0,0,0-.53-.54.54.54,0,0,0,0,1.07Z" class="cls-1"></path><path d="M82.49,10.76a1,1,0,1,0-1-1A1,1,0,0,0,82.49,10.76Z" class="cls-1"></path><path d="M61.17,22.93a1.71,1.71,0,1,0-1.7-1.7A1.71,1.71,0,0,0,61.17,22.93Z" class="cls-1"></path><path d="M42.49,39.29a2.72,2.72,0,1,0-2.72-2.73A2.72,2.72,0,0,0,42.49,39.29Z" class="cls-1"></path><path d="M26.25,51.54a3.72,3.72,0,0,0-1.36.61,3.85,3.85,0,0,0-1,1.1,4.08,4.08,0,0,0-.52,1.4,3.74,3.74,0,0,0,.06,1.49A3.58,3.58,0,0,0,24,57.5a3.69,3.69,0,0,0,1.09,1,3.89,3.89,0,0,0,1.4.52A4,4,0,0,0,28,59a3.84,3.84,0,0,0,1.36-.63,3.79,3.79,0,0,0,1-1.09,3.71,3.71,0,0,0,.52-1.4A3.82,3.82,0,0,0,29.14,52a3.89,3.89,0,0,0-1.4-.52A3.74,3.74,0,0,0,26.25,51.54Z" class="cls-1"></path><path d="M14.59,71.82a5,5,0,0,0-1.73.8,4.81,4.81,0,0,0-2,3.18A4.68,4.68,0,0,0,11,77.7a4.91,4.91,0,0,0,4,3.7,4.91,4.91,0,0,0,1.91-.07,4.86,4.86,0,0,0,1.73-.79,4.7,4.7,0,0,0,1.3-1.4,4.93,4.93,0,0,0,.67-1.78,4.93,4.93,0,0,0-.86-3.64,4.93,4.93,0,0,0-1.4-1.29,4.59,4.59,0,0,0-1.78-.67A5.11,5.11,0,0,0,14.59,71.82Z" class="cls-1"></path><path d="M8.72,105.45A5.75,5.75,0,1,0,3,99.7,5.75,5.75,0,0,0,8.72,105.45Z" class="cls-1"></path><path d="M56.77,45.14a6.52,6.52,0,0,0-1.23.24,6.36,6.36,0,0,0-1.15.48,6.11,6.11,0,0,0-1,.7,6.65,6.65,0,0,0-.88.88,5.52,5.52,0,0,0-.69,1,6.08,6.08,0,0,0-.48,1.15,7.25,7.25,0,0,0-.25,1.23,6.53,6.53,0,0,0,0,1.25,7.34,7.34,0,0,0,.25,1.22,5.91,5.91,0,0,0,.48,1.16,6.47,6.47,0,0,0,.69,1,6.73,6.73,0,0,0,.89.88,6.06,6.06,0,0,0,1,.69,5.82,5.82,0,0,0,1.15.48,6.37,6.37,0,0,0,1.23.24,6.53,6.53,0,0,0,1.25,0,6.42,6.42,0,0,0,1.22-.24,6.17,6.17,0,0,0,1.16-.48,6,6,0,0,0,1-.7,5.7,5.7,0,0,0,.89-.88,5.52,5.52,0,0,0,.69-1,6.08,6.08,0,0,0,.48-1.15,6.37,6.37,0,0,0,.24-1.23,5.23,5.23,0,0,0,0-1.25,6.42,6.42,0,0,0-.24-1.22A6.17,6.17,0,0,0,63,48.47a7.81,7.81,0,0,0-.69-1,6.72,6.72,0,0,0-.89-.88,7.56,7.56,0,0,0-1-.7,6.55,6.55,0,0,0-1.16-.47A6.13,6.13,0,0,0,58,45.14,6.53,6.53,0,0,0,56.77,45.14Z" class="cls-1"></path><path d="M36.21,67.41a7.35,7.35,0,0,0-.4,1.31,7.18,7.18,0,0,0,0,2.72,7.61,7.61,0,0,0,.4,1.31A6.42,6.42,0,0,0,36.86,74,7.17,7.17,0,0,0,37.72,75a7.32,7.32,0,0,0,1.06.87,6.09,6.09,0,0,0,1.21.64,6.61,6.61,0,0,0,1.31.4,6.88,6.88,0,0,0,1.35.14A7,7,0,0,0,44,76.92a6.61,6.61,0,0,0,1.31-.4,6.29,6.29,0,0,0,1.2-.64A6.38,6.38,0,0,0,47.59,75,7.24,7.24,0,0,0,48.46,74a7,7,0,0,0,.64-1.21,7.05,7.05,0,0,0,.4-4,6.61,6.61,0,0,0-.4-1.31,7,7,0,0,0-.64-1.21,7.32,7.32,0,0,0-.87-1.06,6.92,6.92,0,0,0-1.06-.87,7.67,7.67,0,0,0-1.2-.64A6,6,0,0,0,44,63.24a7,7,0,0,0-1.37-.14,6.88,6.88,0,0,0-1.35.14,6,6,0,0,0-1.31.39,7.34,7.34,0,0,0-1.21.64,8,8,0,0,0-1.06.87,7.25,7.25,0,0,0-.86,1.06A6.42,6.42,0,0,0,36.21,67.41Z" class="cls-1"></path><path d="M31.88,84.07a7.4,7.4,0,0,0-1.46.29,7.77,7.77,0,0,0-1.37.57,7.31,7.31,0,0,0-1.23.82,8.68,8.68,0,0,0-1.05,1A7.2,7.2,0,0,0,26,88a7.51,7.51,0,0,0-.86,2.83,7.58,7.58,0,0,0,.29,2.94A8.61,8.61,0,0,0,26,95.18a7.31,7.31,0,0,0,.82,1.23,7.44,7.44,0,0,0,1.05,1,7.2,7.2,0,0,0,1.24.82,7.82,7.82,0,0,0,1.37.58,8,8,0,0,0,1.46.28,7.58,7.58,0,0,0,2.94-.29,7.47,7.47,0,0,0,1.37-.57,7.31,7.31,0,0,0,1.23-.82,7.44,7.44,0,0,0,1-1,7.89,7.89,0,0,0,.83-1.24,8.61,8.61,0,0,0,.57-1.37,7.11,7.11,0,0,0,.28-1.46,7.58,7.58,0,0,0-.29-2.94A7.09,7.09,0,0,0,39.3,88a7.31,7.31,0,0,0-.82-1.23,7.44,7.44,0,0,0-1-1,7.89,7.89,0,0,0-1.24-.83,8.61,8.61,0,0,0-1.37-.57,7.85,7.85,0,0,0-1.46-.28A7.32,7.32,0,0,0,31.88,84.07Z" class="cls-1"></path><path d="M24.75,107.36a8.19,8.19,0,0,0-1.4.75,7,7,0,0,0-1.23,1,7.52,7.52,0,0,0-1,1.23,7.7,7.7,0,0,0-.74,1.39,8,8,0,0,0-.47,1.53,8.19,8.19,0,0,0-.15,1.57,8.3,8.3,0,0,0,.15,1.58,8.53,8.53,0,0,0,1.21,2.92,8.47,8.47,0,0,0,1,1.23,7,7,0,0,0,1.23,1,8.24,8.24,0,0,0,1.4.76,8.88,8.88,0,0,0,1.52.46,8.4,8.4,0,0,0,3.16,0,8.51,8.51,0,0,0,1.51-.46,8.33,8.33,0,0,0,1.41-.76,7.3,7.3,0,0,0,1.22-1,8.47,8.47,0,0,0,1-1.23,8.19,8.19,0,0,0,.75-1.4,8.07,8.07,0,0,0,.46-1.52,8.3,8.3,0,0,0,.16-1.58,8.2,8.2,0,0,0-.16-1.57,8,8,0,0,0-.46-1.53,7.74,7.74,0,0,0-.75-1.39,7.52,7.52,0,0,0-1-1.23,7.36,7.36,0,0,0-1.22-1,8.28,8.28,0,0,0-1.41-.75,8.51,8.51,0,0,0-1.51-.46,7.88,7.88,0,0,0-3.16,0A8.88,8.88,0,0,0,24.75,107.36Z" class="cls-1"></path><path d="M20.17,137.22a8.38,8.38,0,0,0-.11,1.66,9.11,9.11,0,0,0,.22,1.64,8.31,8.31,0,0,0,.54,1.57,8,8,0,0,0,.84,1.44,8,8,0,0,0,2.42,2.25,7.92,7.92,0,0,0,1.49.73,8,8,0,0,0,1.6.43,8.45,8.45,0,0,0,4.87-.66,8.55,8.55,0,0,0,1.44-.83,9.37,9.37,0,0,0,1.25-1.1,9.16,9.16,0,0,0,1-1.32,8.56,8.56,0,0,0,.73-1.49,8.14,8.14,0,0,0,.43-1.61,8.6,8.6,0,0,0-.12-3.3,8.56,8.56,0,0,0-.54-1.57,9,9,0,0,0-.83-1.44,8.07,8.07,0,0,0-1.1-1.24,8.55,8.55,0,0,0-1.32-1,9.34,9.34,0,0,0-1.49-.73,8.14,8.14,0,0,0-1.61-.43,8.6,8.6,0,0,0-3.3.12,8.83,8.83,0,0,0-1.57.54,8.32,8.32,0,0,0-1.44.84,8.44,8.44,0,0,0-2.25,2.41,9,9,0,0,0-.73,1.5A8,8,0,0,0,20.17,137.22Z" class="cls-1"></path><path d="M34.65,170.14A8.63,8.63,0,1,0,26,161.51,8.63,8.63,0,0,0,34.65,170.14Z" class="cls-1"></path><path d="M45.93,191a8.55,8.55,0,1,0-8.54-8.54A8.55,8.55,0,0,0,45.93,191Z" class="cls-1"></path><path d="M55.86,194.26a8.33,8.33,0,0,0-1,1.26,8.51,8.51,0,0,0-.76,1.43,7.59,7.59,0,0,0-.47,1.56,7.93,7.93,0,0,0-.17,1.61,8.13,8.13,0,0,0,.17,1.63,7.69,7.69,0,0,0,.47,1.55,8.6,8.6,0,0,0,.76,1.44A7.94,7.94,0,0,0,57.12,207a7.39,7.39,0,0,0,1.44.77,7.69,7.69,0,0,0,1.55.47,8.09,8.09,0,0,0,1.62.16,8,8,0,0,0,1.62-.16,7.78,7.78,0,0,0,1.56-.47,7.69,7.69,0,0,0,1.44-.77,8.7,8.7,0,0,0,1.25-1,8.85,8.85,0,0,0,1-1.26,8.65,8.65,0,0,0,.77-1.44,8.4,8.4,0,0,0,.47-1.55,8.12,8.12,0,0,0,.16-1.63,7.92,7.92,0,0,0-.16-1.61A8.27,8.27,0,0,0,69.4,197a8.56,8.56,0,0,0-.77-1.43,8.28,8.28,0,0,0-2.28-2.29,8.32,8.32,0,0,0-1.44-.77,8.49,8.49,0,0,0-1.56-.47,8,8,0,0,0-1.62-.16,8.09,8.09,0,0,0-1.62.16,8.4,8.4,0,0,0-1.55.47,8,8,0,0,0-1.44.77A8.85,8.85,0,0,0,55.86,194.26Z" class="cls-1"></path><path d="M78.13,206.44a7.82,7.82,0,0,0-1.37.73,8.7,8.7,0,0,0-1.2,1,7.45,7.45,0,0,0-1,1.2,7,7,0,0,0-.73,1.37,7.32,7.32,0,0,0-.46,1.49,8,8,0,0,0,0,3.09,7,7,0,0,0,.46,1.48,6.68,6.68,0,0,0,.73,1.37,7.72,7.72,0,0,0,2.18,2.18,7.25,7.25,0,0,0,1.37.74,7.66,7.66,0,0,0,1.48.45,8,8,0,0,0,3.09,0,7.75,7.75,0,0,0,1.49-.45,7.57,7.57,0,0,0,1.37-.74,7.45,7.45,0,0,0,1.2-1,8.7,8.7,0,0,0,1-1.2,7.82,7.82,0,0,0,.73-1.37,7.66,7.66,0,0,0,.45-1.48,7.54,7.54,0,0,0,0-3.09,8,8,0,0,0-.45-1.49,8.2,8.2,0,0,0-.73-1.37,7.72,7.72,0,0,0-2.18-2.18,8.2,8.2,0,0,0-1.37-.73A7.75,7.75,0,0,0,82.7,206a7.54,7.54,0,0,0-3.09,0A7.66,7.66,0,0,0,78.13,206.44Z" class="cls-1"></path><path d="M95.81,222.51A7.83,7.83,0,0,0,96,224a8.26,8.26,0,0,0,.42,1.39,8,8,0,0,0,.69,1.29,7.61,7.61,0,0,0,.92,1.12,7.7,7.7,0,0,0,1.13.92,7.5,7.5,0,0,0,1.28.69,6.75,6.75,0,0,0,1.39.42,7.58,7.58,0,0,0,2.9,0,7.14,7.14,0,0,0,1.39-.42,7.9,7.9,0,0,0,1.28-.69,7.61,7.61,0,0,0,1.12-.92,7.09,7.09,0,0,0,.93-1.12,7.23,7.23,0,0,0,.68-1.29,6.75,6.75,0,0,0,.42-1.39,7.07,7.07,0,0,0,.15-1.45,7.21,7.21,0,0,0-.15-1.45,7.66,7.66,0,0,0-1.1-2.67,7.09,7.09,0,0,0-.93-1.12,7.68,7.68,0,0,0-1.12-.93,7.46,7.46,0,0,0-2.67-1.1,7.58,7.58,0,0,0-2.9,0,6.75,6.75,0,0,0-1.39.42,6.82,6.82,0,0,0-1.28.68,7.76,7.76,0,0,0-1.13.93,7.42,7.42,0,0,0-1.61,2.41,8.44,8.44,0,0,0-.42,1.38A8,8,0,0,0,95.81,222.51Z" class="cls-1"></path><path d="M124.11,219.64a8.32,8.32,0,0,0-1.18.63,7.05,7.05,0,0,0-1,.85,7.63,7.63,0,0,0-.85,1,7.42,7.42,0,0,0-.63,1.18,7.87,7.87,0,0,0-.38,1.28,6.49,6.49,0,0,0-.13,1.32,6.59,6.59,0,0,0,.13,1.33,7.87,7.87,0,0,0,.38,1.28,7.42,7.42,0,0,0,.63,1.18,7.63,7.63,0,0,0,.85,1,7,7,0,0,0,1,.84,6.69,6.69,0,0,0,1.18.63,7,7,0,0,0,1.28.39,6.49,6.49,0,0,0,1.32.13,6.59,6.59,0,0,0,1.33-.13,6.88,6.88,0,0,0,2.46-1,6.93,6.93,0,0,0,1.87-1.87,6.69,6.69,0,0,0,.63-1.18,7,7,0,0,0,.39-1.28,6.59,6.59,0,0,0,.13-1.33,6.49,6.49,0,0,0-.13-1.32,7,7,0,0,0-.39-1.28,6.69,6.69,0,0,0-.63-1.18,7.17,7.17,0,0,0-1.87-1.88,8.91,8.91,0,0,0-1.18-.63,7.87,7.87,0,0,0-1.28-.38,6.59,6.59,0,0,0-1.33-.13,6.49,6.49,0,0,0-1.32.13A7.87,7.87,0,0,0,124.11,219.64Z" class="cls-1"></path><path d="M150.37,230a6.08,6.08,0,1,0-6.08-6.07A6.07,6.07,0,0,0,150.37,230Z" class="cls-1"></path><path d="M171.69,211.29a5.27,5.27,0,0,0-1.88.86,5.21,5.21,0,0,0-1.41,1.51,5.34,5.34,0,0,0-.65,4,5.28,5.28,0,0,0,4.31,4,5.27,5.27,0,0,0,5.35-2.44,5.18,5.18,0,0,0,.72-1.94,5.11,5.11,0,0,0-.07-2.06,5.29,5.29,0,0,0-4.3-4A5.34,5.34,0,0,0,171.69,211.29Z" class="cls-1"></path><path d="M193.1,208.39a4.45,4.45,0,1,0-4.45-4.45A4.45,4.45,0,0,0,193.1,208.39Z" class="cls-1"></path><path d="M209.88,190.77a3.62,3.62,0,1,0-3.62-3.62A3.62,3.62,0,0,0,209.88,190.77Z" class="cls-1"></path><path d="M222.36,169.76a2.8,2.8,0,1,0-2.81-2.8A2.8,2.8,0,0,0,222.36,169.76Z" class="cls-1"></path><path d="M229.81,146.51a2.09,2.09,0,1,0-2.1-2.09A2.09,2.09,0,0,0,229.81,146.51Z" class="cls-1"></path><path d="M231.87,122.26a1.49,1.49,0,1,0-1.5-1.49A1.49,1.49,0,0,0,231.87,122.26Z" class="cls-1"></path><path d="M228.44,98.31a1,1,0,0,0,0-2,1,1,0,0,0-1,1A1,1,0,0,0,228.44,98.31Z" class="cls-1"></path><path d="M219.68,75.91a.69.69,0,1,0-.69-.69A.69.69,0,0,0,219.68,75.91Z" class="cls-1"></path><path d="M206,56.28a.49.49,0,1,0-.49-.49A.49.49,0,0,0,206,56.28Z" class="cls-1"></path><path d="M188.31,40.52a.52.52,0,0,0,.52-.52.52.52,0,1,0-1,0A.51.51,0,0,0,188.31,40.52Z" class="cls-1"></path><path d="M167.42,29.72a1,1,0,1,0-1-1A1,1,0,0,0,167.42,29.72Z" class="cls-1"></path><path d="M144.49,24.56a2,2,0,1,0-2-1.95A1.95,1.95,0,0,0,144.49,24.56Z" class="cls-1"></path><path d="M120.76,25.14a3.22,3.22,0,1,0-3.22-3.22A3.22,3.22,0,0,0,120.76,25.14Z" class="cls-1"></path><path d="M97.51,31.21A4.51,4.51,0,1,0,93,26.7,4.51,4.51,0,0,0,97.51,31.21Z" class="cls-1"></path><path d="M76,42.35a5.61,5.61,0,1,0-5.6-5.61A5.61,5.61,0,0,0,76,42.35Z" class="cls-1"></path><path d="M116.44,38.47a6.33,6.33,0,0,0-1.23.21,6.86,6.86,0,0,0-1.17.44,6,6,0,0,0-1.05.67,6.21,6.21,0,0,0-.91.86,5.53,5.53,0,0,0-.72,1,5.83,5.83,0,0,0-.51,1.14,5.68,5.68,0,0,0-.28,1.22,6.54,6.54,0,0,0,0,1.25,6.34,6.34,0,0,0,.22,1.23,6.11,6.11,0,0,0,.44,1.17,6.44,6.44,0,0,0,.67,1,6.29,6.29,0,0,0,1.88,1.63,5.83,5.83,0,0,0,1.14.51,5.68,5.68,0,0,0,1.22.28,6.43,6.43,0,0,0,1.24,0,6.58,6.58,0,0,0,1.24-.22,6,6,0,0,0,1.16-.44,6.12,6.12,0,0,0,1.06-.67,6.72,6.72,0,0,0,.91-.86,5.68,5.68,0,0,0,.72-1,5.83,5.83,0,0,0,.51-1.14,7.2,7.2,0,0,0,.28-1.22,6.51,6.51,0,0,0,0-1.25,6.6,6.6,0,0,0-.21-1.23A6.76,6.76,0,0,0,122.6,42a6.12,6.12,0,0,0-.67-1.06,7.41,7.41,0,0,0-.86-.91,6.06,6.06,0,0,0-1-.72,5.83,5.83,0,0,0-1.14-.51,7.2,7.2,0,0,0-1.22-.28A6.53,6.53,0,0,0,116.44,38.47Z" class="cls-1"></path><path d="M92.85,45.05a8,8,0,0,0-1.35.4,7.37,7.37,0,0,0-1.24.66,7.63,7.63,0,0,0-1.09.88,7.1,7.1,0,0,0-.89,1.08,6.09,6.09,0,0,0-.67,1.23,6.92,6.92,0,0,0-.41,1.34A6.5,6.5,0,0,0,87.05,52a6.58,6.58,0,0,0,.13,1.4,6.89,6.89,0,0,0,.4,1.34A6.37,6.37,0,0,0,88.23,56a7.14,7.14,0,0,0,2,2,8.13,8.13,0,0,0,1.23.67,6.92,6.92,0,0,0,1.34.41,7.14,7.14,0,0,0,4.14-.38A7.78,7.78,0,0,0,98.14,58a7.63,7.63,0,0,0,1.09-.88,7.75,7.75,0,0,0,.89-1.08,6.63,6.63,0,0,0,.67-1.23,6.92,6.92,0,0,0,.41-1.34,6.5,6.5,0,0,0,.15-1.39,7.3,7.3,0,0,0-.13-1.4,6.89,6.89,0,0,0-.4-1.34,6.37,6.37,0,0,0-.65-1.24,7.77,7.77,0,0,0-.88-1.09,7.16,7.16,0,0,0-1.08-.9A7.77,7.77,0,0,0,97,45.48a6.83,6.83,0,0,0-1.33-.41,7.31,7.31,0,0,0-1.4-.15A7.19,7.19,0,0,0,92.85,45.05Z" class="cls-1"></path><path d="M71.63,58.44a7.83,7.83,0,0,0-3.54,2.91,7.84,7.84,0,0,0-1.18,2.84,8,8,0,0,0,0,3.08,7.66,7.66,0,0,0,.45,1.48,7.82,7.82,0,0,0,.73,1.37,7.48,7.48,0,0,0,1,1.19,8.09,8.09,0,0,0,1.2,1,9.87,9.87,0,0,0,1.36.73,8.26,8.26,0,0,0,1.49.44,7.44,7.44,0,0,0,3.07,0A8.15,8.15,0,0,0,77.67,73,9.43,9.43,0,0,0,79,72.3a8.47,8.47,0,0,0,2.18-2.18A8.55,8.55,0,0,0,82,68.75a9.37,9.37,0,0,0,.45-1.48,8,8,0,0,0,0-3.08A9.37,9.37,0,0,0,82,62.71a8.45,8.45,0,0,0-.73-1.36,8.09,8.09,0,0,0-1-1.2,7.48,7.48,0,0,0-1.19-1,7.82,7.82,0,0,0-1.37-.73A7.45,7.45,0,0,0,76.19,58a7.93,7.93,0,0,0-3.07,0A7.55,7.55,0,0,0,71.63,58.44Z" class="cls-1"></path><path d="M51.8,82.59a9.11,9.11,0,0,0-.22,1.64,8.33,8.33,0,0,0,.11,1.65,7.47,7.47,0,0,0,.42,1.59A8.1,8.1,0,0,0,52.83,89a8.55,8.55,0,0,0,1,1.32,8,8,0,0,0,1.23,1.09,8.87,8.87,0,0,0,1.43.83,8,8,0,0,0,1.56.53,8.54,8.54,0,0,0,3.29.12,8.66,8.66,0,0,0,1.59-.42,7.92,7.92,0,0,0,1.49-.73,8.41,8.41,0,0,0,1.31-1,8.57,8.57,0,0,0,1.09-1.24,8.37,8.37,0,0,0,1.37-3,8.19,8.19,0,0,0,.22-1.63,9,9,0,0,0-.1-1.65,8,8,0,0,0-.43-1.6,7.54,7.54,0,0,0-.73-1.48,8.5,8.5,0,0,0-1-1.31,9.29,9.29,0,0,0-1.25-1.1,7.71,7.71,0,0,0-1.42-.82,8.83,8.83,0,0,0-1.57-.54,7.44,7.44,0,0,0-1.63-.22,8.27,8.27,0,0,0-1.65.1,8,8,0,0,0-1.6.43,8.43,8.43,0,0,0-1.48.72,8,8,0,0,0-1.31,1,8.64,8.64,0,0,0-1.1,1.24A8.82,8.82,0,0,0,52.34,81,8.46,8.46,0,0,0,51.8,82.59Z" class="cls-1"></path><path d="M45.42,100.71A8,8,0,0,0,44.35,102a9.28,9.28,0,0,0-.8,1.49,9.79,9.79,0,0,0-.49,1.62,8.9,8.9,0,0,0,0,3.36,8.51,8.51,0,0,0,1.29,3.11,8,8,0,0,0,1.07,1.31A8.88,8.88,0,0,0,46.73,114a8.55,8.55,0,0,0,1.49.8,9.2,9.2,0,0,0,1.62.5,8.5,8.5,0,0,0,5-.5,7.93,7.93,0,0,0,1.49-.8,8.88,8.88,0,0,0,1.31-1.07,8.49,8.49,0,0,0,1.07-1.31,8.87,8.87,0,0,0,.8-1.49,7.55,7.55,0,0,0,.48-1.62,8.39,8.39,0,0,0,0-3.36,7.55,7.55,0,0,0-.48-1.62,9.28,9.28,0,0,0-.8-1.49,9,9,0,0,0-1.07-1.31,8.39,8.39,0,0,0-1.31-1.07,8.55,8.55,0,0,0-1.49-.8,9.43,9.43,0,0,0-1.62-.49,8.44,8.44,0,0,0-3.37,0,9.17,9.17,0,0,0-1.62.49,8.55,8.55,0,0,0-1.49.8A8.88,8.88,0,0,0,45.42,100.71Z" class="cls-1"></path><path d="M42.21,127.36a7.92,7.92,0,0,0-.49,1.59,8.54,8.54,0,0,0,0,3.29,7.92,7.92,0,0,0,.49,1.59,8.19,8.19,0,0,0,.78,1.46,7.6,7.6,0,0,0,1,1.29,8.55,8.55,0,0,0,1.28,1,8.94,8.94,0,0,0,1.46.79,8.73,8.73,0,0,0,1.58.48,9.22,9.22,0,0,0,1.65.16,9,9,0,0,0,1.65-.16,8.59,8.59,0,0,0,1.59-.48,8.94,8.94,0,0,0,1.46-.79,8.55,8.55,0,0,0,1.28-1,8.45,8.45,0,0,0,1.84-2.75,8.59,8.59,0,0,0,.48-1.59,8.54,8.54,0,0,0,0-3.29,8.59,8.59,0,0,0-.48-1.59,8.19,8.19,0,0,0-.78-1.46A7.75,7.75,0,0,0,56,124.61a8.62,8.62,0,0,0-1.28-1,8.89,8.89,0,0,0-1.46-.78,8.59,8.59,0,0,0-1.59-.48,8.24,8.24,0,0,0-1.65-.16,8.39,8.39,0,0,0-1.65.16,8.73,8.73,0,0,0-1.58.48,8.89,8.89,0,0,0-1.46.78,8.62,8.62,0,0,0-1.28,1,7.23,7.23,0,0,0-1,1.29A8.19,8.19,0,0,0,42.21,127.36Z" class="cls-1"></path><path d="M55.56,161.83a8,8,0,1,0-8.05-8A8,8,0,0,0,55.56,161.83Z" class="cls-1"></path><path d="M67.7,181.71a7.42,7.42,0,1,0-7.42-7.42A7.43,7.43,0,0,0,67.7,181.71Z" class="cls-1"></path><path d="M78.92,188.77a6.25,6.25,0,0,0-.17,1.29,7.13,7.13,0,0,0,.07,1.3,7,7,0,0,0,.34,1.25,6.56,6.56,0,0,0,.57,1.16,7.15,7.15,0,0,0,.78,1,6.64,6.64,0,0,0,1,.86,7,7,0,0,0,1.12.65,6.61,6.61,0,0,0,1.23.42,6.19,6.19,0,0,0,2.57.09,6,6,0,0,0,1.26-.33,6.24,6.24,0,0,0,1.16-.57,5.7,5.7,0,0,0,1-.79,6.7,6.7,0,0,0,.86-1,6.66,6.66,0,0,0,1.07-2.34,7.13,7.13,0,0,0,.17-1.29,6.61,6.61,0,0,0-.41-2.55,6.37,6.37,0,0,0-.58-1.17,6,6,0,0,0-.78-1,6.56,6.56,0,0,0-1-.86,7,7,0,0,0-1.13-.65,6.51,6.51,0,0,0-1.22-.42,6.26,6.26,0,0,0-1.29-.18,5.61,5.61,0,0,0-1.29.09,5.9,5.9,0,0,0-1.25.33,7,7,0,0,0-1.17.56,7.21,7.21,0,0,0-1,.79,6.71,6.71,0,0,0-.86,1,5.87,5.87,0,0,0-.65,1.11A6.87,6.87,0,0,0,78.92,188.77Z" class="cls-1"></path><path d="M106.94,206.06a5.63,5.63,0,1,0-5.63-5.63A5.63,5.63,0,0,0,106.94,206.06Z" class="cls-1"></path><path d="M126,203.72a4.33,4.33,0,0,0,.35,1.74,4.52,4.52,0,0,0,1,1.49,4.38,4.38,0,0,0,1.48,1,4.6,4.6,0,0,0,5-1,4.65,4.65,0,0,0,1-1.49,4.33,4.33,0,0,0,.35-1.74,4.38,4.38,0,0,0-.35-1.75,4.54,4.54,0,0,0-1-1.49,5,5,0,0,0-1.49-1,4.67,4.67,0,0,0-3.5,0,4.69,4.69,0,0,0-1.48,1,4.62,4.62,0,0,0-1.34,3.24Z" class="cls-1"></path><path d="M154.08,203.41a3.51,3.51,0,1,0-3.5-3.5A3.51,3.51,0,0,0,154.08,203.41Z" class="cls-1"></path><path d="M175.45,191.83a2.49,2.49,0,1,0-2.5-2.5A2.5,2.5,0,0,0,175.45,191.83Z" class="cls-1"></path><path d="M192.73,174.57a1.65,1.65,0,1,0-1.64-1.64A1.65,1.65,0,0,0,192.73,174.57Z" class="cls-1"></path><path d="M204.43,153.18a1,1,0,1,0-1-1A1,1,0,0,0,204.43,153.18Z" class="cls-1"></path><path d="M209.49,129.47a.6.6,0,0,0,0-1.2.6.6,0,0,0-.6.6A.6.6,0,0,0,209.49,129.47Z" class="cls-1"></path><path d="M207,105.11a.41.41,0,0,0,.13.32.46.46,0,0,0,.64,0,.44.44,0,0,0,.13-.32.48.48,0,0,0-.13-.32.49.49,0,0,0-.64,0A.44.44,0,0,0,207,105.11Z" class="cls-1"></path><path d="M198.5,83.92a.91.91,0,1,0-.9-.9A.91.91,0,0,0,198.5,83.92Z" class="cls-1"></path><path d="M183.43,66.67a2.12,2.12,0,1,0-2.12-2.12A2.12,2.12,0,0,0,183.43,66.67Z" class="cls-1"></path><path d="M160.92,48.67a3.54,3.54,0,0,0-.82,1.23,3.74,3.74,0,0,0-.29,1.44,3.79,3.79,0,0,0,.29,1.45,3.74,3.74,0,0,0,.82,1.23,3.69,3.69,0,0,0,1.23.82,3.73,3.73,0,0,0,1.44.28,3.78,3.78,0,0,0,1.45-.28,3.77,3.77,0,0,0,2.05-2.05,3.78,3.78,0,0,0,.28-1.45,3.73,3.73,0,0,0-.28-1.44,3.69,3.69,0,0,0-.82-1.23,3.74,3.74,0,0,0-1.23-.82,3.79,3.79,0,0,0-1.45-.29,3.74,3.74,0,0,0-1.44.29A3.64,3.64,0,0,0,160.92,48.67Z" class="cls-1"></path><path d="M140.75,49.87a5.33,5.33,0,1,0-5.33-5.32A5.32,5.32,0,0,0,140.75,49.87Z" class="cls-1"></path><path d="M170.07,85.61a6.38,6.38,0,1,0-6.37-6.38A6.38,6.38,0,0,0,170.07,85.61Z" class="cls-1"></path><path d="M143.14,64.32a8.26,8.26,0,0,0-.42,1.39,7.48,7.48,0,0,0,0,2.88,8.26,8.26,0,0,0,.42,1.39,7.85,7.85,0,0,0,.68,1.28,7.53,7.53,0,0,0,.92,1.11,7.17,7.17,0,0,0,1.13.93,8.12,8.12,0,0,0,1.27.68,6.75,6.75,0,0,0,1.39.42,7.72,7.72,0,0,0,1.44.14,7.64,7.64,0,0,0,1.44-.14A6.75,6.75,0,0,0,152.8,74a8.23,8.23,0,0,0,1.28-.68,7.81,7.81,0,0,0,2-2A7.15,7.15,0,0,0,156.8,70a6.75,6.75,0,0,0,.42-1.39,7.48,7.48,0,0,0,0-2.88,6.75,6.75,0,0,0-.42-1.39,7.15,7.15,0,0,0-.68-1.28,7.61,7.61,0,0,0-.92-1.12,8.17,8.17,0,0,0-1.12-.92,7.46,7.46,0,0,0-1.28-.68,8.26,8.26,0,0,0-1.39-.42,7.48,7.48,0,0,0-2.88,0,8.26,8.26,0,0,0-1.39.42,7.37,7.37,0,0,0-1.27.68,7.7,7.7,0,0,0-1.13.92,7.61,7.61,0,0,0-.92,1.12A7.85,7.85,0,0,0,143.14,64.32Z" class="cls-1"></path><path d="M126.76,72a8.27,8.27,0,1,0-8.27-8.27A8.28,8.28,0,0,0,126.76,72Z" class="cls-1"></path><path d="M103.28,60.79a9.49,9.49,0,0,0-1.66.3,9.67,9.67,0,0,0-1.57.62,8.84,8.84,0,0,0-1.42.92,9.08,9.08,0,0,0-1.22,1.18,9.54,9.54,0,0,0-1,1.39,9.19,9.19,0,0,0-.67,1.55,7.78,7.78,0,0,0-.35,1.66,8,8,0,0,0,0,1.69,8.57,8.57,0,0,0,.92,3.23,8.42,8.42,0,0,0,.92,1.42A9.08,9.08,0,0,0,98.42,76a8.2,8.2,0,0,0,1.39,1A8.72,8.72,0,0,0,103,78a8.67,8.67,0,0,0,1.69,0,7.82,7.82,0,0,0,1.66-.3,9.32,9.32,0,0,0,1.57-.62,7.85,7.85,0,0,0,1.42-.92A8.51,8.51,0,0,0,110.58,75,8.61,8.61,0,0,0,112.21,72a9.26,9.26,0,0,0,.36-1.66,8.67,8.67,0,0,0,0-1.69,7.94,7.94,0,0,0-.3-1.66,9.67,9.67,0,0,0-.62-1.57,8.84,8.84,0,0,0-.92-1.42,8.51,8.51,0,0,0-1.18-1.22,9,9,0,0,0-1.39-1,8.54,8.54,0,0,0-1.55-.67,8.45,8.45,0,0,0-1.66-.35A8,8,0,0,0,103.28,60.79Z" class="cls-1"></path><path d="M83.82,75.08a8.76,8.76,0,0,0-1.6.42,8.13,8.13,0,0,0-1.48.73,8.26,8.26,0,0,0-1.3,1,9.05,9.05,0,0,0-1.09,1.23,9.17,9.17,0,0,0-.82,1.42A9,9,0,0,0,77,81.43a8.18,8.18,0,0,0-.21,1.63,7.5,7.5,0,0,0,.1,1.64,8.66,8.66,0,0,0,.42,1.59A8.8,8.8,0,0,0,78,87.77a9.66,9.66,0,0,0,1,1.31,9,9,0,0,0,1.23,1.08,8.46,8.46,0,0,0,1.43.83,9.14,9.14,0,0,0,1.55.53,8.22,8.22,0,0,0,4.86-.31A8.28,8.28,0,0,0,92,88.26a8.78,8.78,0,0,0,.83-1.42,8.59,8.59,0,0,0,.53-1.55,9,9,0,0,0,.22-1.63A8.28,8.28,0,0,0,93.43,82,7.47,7.47,0,0,0,93,80.42,8.34,8.34,0,0,0,92.29,79a8.3,8.3,0,0,0-2.23-2.39,8.1,8.1,0,0,0-1.42-.83,7.75,7.75,0,0,0-1.56-.53,8.4,8.4,0,0,0-3.26-.12Z" class="cls-1"></path><path d="M73.08,111.18a7.71,7.71,0,1,0-7.72-7.71A7.71,7.71,0,0,0,73.08,111.18Z" class="cls-1"></path><path d="M69.63,133.39a6.72,6.72,0,1,0-6.71-6.72A6.72,6.72,0,0,0,69.63,133.39Z" class="cls-1"></path><path d="M69.86,149.44a5.56,5.56,0,0,0,.41,2.09,5.5,5.5,0,0,0,1.18,1.76,5.28,5.28,0,0,0,1.77,1.18,5.38,5.38,0,0,0,2.09.42,5.5,5.5,0,0,0,3.85-1.6,5.41,5.41,0,0,0,0-7.7,5.31,5.31,0,0,0-1.77-1.19,5.47,5.47,0,0,0-2.08-.41,5.56,5.56,0,0,0-2.09.41,5.31,5.31,0,0,0-1.77,1.19,5.39,5.39,0,0,0-1.59,3.85Z" class="cls-1"></path><path d="M89,164.27a3.8,3.8,0,0,0-1.51.43,4,4,0,0,0-1.23,1,3.77,3.77,0,0,0-.76,1.37,4.1,4.1,0,0,0-.18,1.56,4,4,0,0,0,.43,1.51,3.92,3.92,0,0,0,1,1.23,4,4,0,0,0,1.37.76,4.13,4.13,0,0,0,1.56.18,3.94,3.94,0,0,0,1.51-.44,3.76,3.76,0,0,0,1.23-1,3.94,3.94,0,0,0,.76-1.37,3.76,3.76,0,0,0,.18-1.56,4,4,0,0,0-1.41-2.74,3.85,3.85,0,0,0-1.37-.76A3.94,3.94,0,0,0,89,164.27Z" class="cls-1"></path><path d="M109.39,183a2.66,2.66,0,1,0-2.66-2.66A2.66,2.66,0,0,0,109.39,183Z" class="cls-1"></path><path d="M132.6,185.36a1.56,1.56,0,1,0-1.55-1.55A1.56,1.56,0,0,0,132.6,185.36Z" class="cls-1"></path><path d="M155.36,178.94a.81.81,0,1,0-.81-.81A.81.81,0,0,0,155.36,178.94Z" class="cls-1"></path><path d="M173.75,164.15a.45.45,0,0,0,.77.32.46.46,0,0,0,0-.64.45.45,0,0,0-.77.32Z" class="cls-1"></path><path d="M186.29,145a1,1,0,1,0-1-1A1,1,0,0,0,186.29,145Z" class="cls-1"></path><path d="M189.73,123.56a2.72,2.72,0,1,0-2.72-2.73A2.72,2.72,0,0,0,189.73,123.56Z" class="cls-1"></path><path d="M184.06,103a4.88,4.88,0,1,0-4.89-4.88A4.88,4.88,0,0,0,184.06,103Z" class="cls-1"></path></g><path d="M774.3,67.07a6.8,6.8,0,0,1,7,6.78,6.79,6.79,0,0,1-6.78,6.79,6.79,6.79,0,0,1-6.79-6.79,6.62,6.62,0,0,1,1-3.62,6.44,6.44,0,0,1,2.63-2.41A6.87,6.87,0,0,1,774.3,67.07Zm.33,1.32a5.28,5.28,0,0,0-4,1.65A5.37,5.37,0,0,0,769,73.85,5.45,5.45,0,1,0,779.13,71a5.19,5.19,0,0,0-2.07-2A5.34,5.34,0,0,0,774.63,68.39Zm-3.14,9.09v-7.2h3.41a2.45,2.45,0,0,1,1.84.59,2,2,0,0,1,.58,1.44,1.86,1.86,0,0,1-.48,1.34,2.56,2.56,0,0,1-1.46.68,1.9,1.9,0,0,1,.7.46,8.92,8.92,0,0,1,.83,1.24l.84,1.45H776l-.6-1.16a5.77,5.77,0,0,0-1-1.42,1.52,1.52,0,0,0-1.08-.37h-.38v3Zm1.45-4.09h1.19a2.47,2.47,0,0,0,1.27-.24.84.84,0,0,0,.38-.77.81.81,0,0,0-.37-.71,2.13,2.13,0,0,0-1.13-.24h-1.34Z" class="cls-1"></path></svg>