<svg id="Layer_1" xmlns="http://www.w3.org/2000/svg" version="1.1" viewBox="0 0 330 134">
  <!-- Generator: Adobe Illustrator 29.5.0, SVG Export Plug-In . SVG Version: 2.1.0 Build 137)  -->
  <defs>
    <style>
      .st0 {
        fill: #fff;
      }
    </style>
  </defs>
  <g>
    <g>
      <path class="st0" d="M170.36,77.77h-4.24c-3.89,0-7.05-2.16-7.05-4.81v-2.91c0-.25.11-.5.33-.7.37-.36.97-.55,1.6-.53,3.26.12,6.07.3,8.93,1,.4.1.79.51.96.94.8,1.99,1.14,3.5,1.32,5.73.02.24-.07.48-.27.69-.34.37-.94.59-1.58.59Z"/>
      <path class="st0" d="M171.39,68.61c-1.52-3.17-3.9-5.64-6.63-7.17-.07-.04-.03-.15.05-.14,9.08,1.61,16.15,6.5,18.4,12.75.02.05-.05.1-.09.06-2.19-1.98-5.9-3.75-10.66-4.8-.54-.12-.95-.45-1.07-.71Z"/>
      <path class="st0" d="M159.07,66.74v-5.7c0-.14.12-.26.27-.25,4.16.35,7.9,2.75,10.19,7.16.36.69-.24.73-.56.66-2.56-.56-5.33-.75-8.13-.8-.99-.02-1.77-.41-1.77-1.07Z"/>
      <path class="st0" d="M173.57,76.59c-.14-1.82-.49-3.6-1.06-5.29-.18-.53-.04-.96.72-.75,6.3,1.68,10.28,4.38,10.69,7.23h-8.5c-.99,0-1.8-.52-1.85-1.19Z"/>
    </g>
    <g>
      <path class="st0" d="M170.36,78.79h-4.24c-3.89,0-7.05,2.16-7.05,4.81v2.91c0,.25.11.5.33.7.37.36.97.55,1.6.53,3.26-.12,6.07-.3,8.93-1,.4-.1.79-.51.96-.94.8-1.99,1.14-3.5,1.32-5.73.02-.24-.07-.48-.27-.69-.34-.37-.94-.59-1.58-.59Z"/>
      <path class="st0" d="M171.39,87.95c-1.52,3.17-3.9,5.64-6.63,7.17-.07.04-.03.15.05.14,9.08-1.61,16.15-6.5,18.4-12.75.02-.05-.05-.1-.09-.06-2.19,1.98-5.9,3.75-10.66,4.8-.54.12-.95.45-1.07.71Z"/>
      <path class="st0" d="M159.07,89.82v5.7c0,.14.12.26.27.25,4.16-.35,7.9-2.75,10.19-7.16.36-.69-.24-.73-.56-.66-2.56.56-5.33.75-8.13.8-.99.02-1.77.41-1.77,1.07Z"/>
      <path class="st0" d="M173.57,79.97c-.14,1.82-.49,3.6-1.06,5.29-.18.53-.04.96.72.75,6.3-1.68,10.28-4.38,10.69-7.23h-8.5c-.99,0-1.8.52-1.85,1.19Z"/>
    </g>
    <g>
      <path class="st0" d="M146.43,77.77h4.24c3.89,0,7.05-2.16,7.05-4.81v-2.91c0-.25-.11-.5-.33-.7-.37-.36-.97-.55-1.6-.53-3.26.12-6.07.3-8.93,1-.4.1-.79.51-.96.94-.8,1.99-1.14,3.5-1.32,5.73-.02.24.07.48.27.69.34.37.94.59,1.58.59Z"/>
      <path class="st0" d="M145.41,68.61c1.52-3.17,3.9-5.64,6.63-7.17.07-.04.03-.15-.05-.14-9.08,1.61-16.15,6.5-18.4,12.75-.02.05.05.1.09.06,2.19-1.98,5.9-3.75,10.66-4.8.54-.12.95-.45,1.07-.71Z"/>
      <path class="st0" d="M157.72,66.74v-5.7c0-.14-.12-.26-.27-.25-4.16.35-7.9,2.75-10.19,7.16-.36.69.24.73.56.66,2.56-.56,5.33-.75,8.13-.8.99-.02,1.77-.41,1.77-1.07Z"/>
      <path class="st0" d="M143.23,76.59c.14-1.82.49-3.6,1.06-5.29.18-.53.04-.96-.72-.75-6.3,1.68-10.28,4.38-10.69,7.23h8.5c.99,0,1.8-.52,1.85-1.19Z"/>
    </g>
    <g>
      <path class="st0" d="M146.43,78.79h4.24c3.89,0,7.05,2.16,7.05,4.81v2.91c0,.25-.11.5-.33.7-.37.36-.97.55-1.6.53-3.26-.12-6.07-.3-8.93-1-.4-.1-.79-.51-.96-.94-.8-1.99-1.14-3.5-1.32-5.73-.02-.24.07-.48.27-.69.34-.37.94-.59,1.58-.59Z"/>
      <path class="st0" d="M145.41,87.95c1.52,3.17,3.9,5.64,6.63,7.17.07.04.03.15-.05.14-9.08-1.61-16.15-6.5-18.4-12.75-.02-.05.05-.1.09-.06,2.19,1.98,5.9,3.75,10.66,4.8.54.12.95.45,1.07.71Z"/>
      <path class="st0" d="M157.72,89.82v5.7c0,.14-.12.26-.27.25-4.16-.35-7.9-2.75-10.19-7.16-.36-.69.24-.73.56-.66,2.56.56,5.33.75,8.13.8.99.02,1.77.41,1.77,1.07Z"/>
      <path class="st0" d="M143.23,79.97c.14,1.82.49,3.6,1.06,5.29.18.53.04.96-.72.75-6.3-1.68-10.28-4.38-10.69-7.23h8.5c.99,0,1.8.52,1.85,1.19Z"/>
    </g>
  </g>
  <path class="st0" d="M328.49,91.98c-2.32,2-5.58,3.64-10.04,3.64-28.17,0-32.4-36.62-62.47-37.05-1.03-.01-2.09.01-3.18.09-1.74.12-1.96-.53-.59-1.43,4.64-3.06,14.67-2.05,24.77-2.67,14.02-.87,28.17-9.37,28.17-27.42,0-14.22-9.56-26.73-36.54-26.73h-56.53c-.61,0-1.12.48-1.08,1.08.02.4.28.68.86.97,1.95.98,3.62,3.57,3.62,6.84v66.89c0,1.06-.85,1.67-1.92-.19L173.04,5.53c-.26-.44-.35-.82-.34-1.16.05-1.47,2.14-2.14,2.14-3.17,0-.47-.45-.79-1.1-.79h-30.69c-.65,0-1.1.32-1.1.79,0,1.03,2.09,1.69,2.14,3.17.01.34-.09.72-.34,1.16l-26.98,46.7c-.61,1.18-1.54,1.45-1.54-.31,0-27.4-24.02-51.51-55.46-51.51H1.58C.98.41.47.89.5,1.49c.02.4.28.68.86.97,1.95.98,3.62,3.57,3.62,6.84v88.71c0,3.26-1.66,5.86-3.62,6.84-.59.29-.84.58-.86.97-.04.6.47,1.08,1.08,1.08h56.52c11.38,0,21.46-2.82,30.42-9.63.23-.18.7-.27.7.19,0,1.43-3.6,5.22-7.35,7.45,0,0-.75.25-.75,1.02s.69.97,1.19.97h16.47c2.05,0,4.03-1.19,5.09-3.06l49.75-86.12c.72-1.3,2.21-4.19,4.79-4.23,2.41-.04,4.01,2.98,4.79,4.23l49.75,86.12c1.72,2.96,5.09,3.06,5.09,3.06h16.47c.49,0,1.19-.19,1.19-.97s-.75-1.02-.75-1.02c0,0-.02-.01-.03-.02-1.54-.92-2.46-2.5-2.46-4.65v-29.48c0-4.86,2.54-7.29,7.93-7.29,25.09,0,33.64,45.13,67,45.13,9.77,0,20.57-7.1,22.1-16.01.17-.99-.55-1-.99-.62ZM58.1,92.07h-30.08c-6.23,0-6.05-.65-6.05-5.43V20.52c0-4.77-.17-5.43,6.05-5.43h30.08c22.58,0,41.15,16.91,41.15,38.64,0,22.97-17.1,38.34-41.15,38.34ZM234.28,58.34c-.55.98-.69,1.67-1.18,1.67-.42,0-.64-.36-.64-1.35V20.52c0-4.77.03-5.43,6.25-5.43h32.85c11.52,0,16.79,5.89,16.79,12.37,0,24.21-43.22,11.79-54.06,30.89Z"/>
  <g>
    <path class="st0" d="M141.07,121.56c4.91,0,9.1,1.89,9.1,6.22s-4.19,6.22-9.1,6.22-9.1-1.89-9.1-6.22,4.19-6.22,9.1-6.22ZM141.07,132.17c3.73,0,7.14-1.06,7.14-4.39s-3.41-4.39-7.14-4.39-7.16,1.05-7.16,4.39,3.41,4.39,7.16,4.39Z"/>
    <path class="st0" d="M167.72,133.63v-11.7c0-.06.05-.1.1-.1h10.48c2.72,0,4.8.37,4.8,2.81,0,1.43-.76,2.31-1.81,2.78-.1.04-.08.19.03.2,1.73.27,2.57,1.43,2.57,2.95,0,2.01-1.47,3.16-4.65,3.16h-11.42c-.06,0-.1-.05-.1-.1ZM169.6,123.82v2.81c0,.09.07.16.16.16h8.35c1.96,0,3.08-.63,3.08-1.96,0-1.17-1.14-1.17-2.96-1.17h-8.48c-.09,0-.16.07-.16.16ZM169.6,128.69v3.04c0,.09.07.16.16.16h9.47c1.89,0,2.79-.34,2.79-1.51s-1.1-1.85-2.83-1.85h-9.42c-.09,0-.16.07-.16.16Z"/>
    <path class="st0" d="M236.87,133.63v-11.71c0-.05.04-.09.09-.09h1.72c.05,0,.09.04.09.09v9.88c0,.05.04.09.09.09h11.38c.05,0,.09.04.09.09v1.64c0,.05-.04.09-.09.09h-13.28c-.05,0-.09-.04-.09-.09Z"/>
    <path class="st0" d="M101.35,133.63v-11.71c0-.05.04-.09.09-.09h1.72c.05,0,.09.04.09.09v9.88c0,.05.04.09.09.09h11.38c.05,0,.09.04.09.09v1.64c0,.05-.04.09-.09.09h-13.28c-.05,0-.09-.04-.09-.09Z"/>
    <path class="st0" d="M74.94,127.23v1.62s.03.07.07.07h7.32v.15c-.12,1.55-2.1,3.15-6.94,3.15-4.1,0-6.94-1.67-6.94-4.45s3-4.39,7.11-4.39c1.86,0,5.31.4,6.47,1.07.04.02.09.01.12-.03l.87-1.31s0-.1-.04-.12c-2.06-.95-4.73-1.44-7.42-1.44-5.29,0-9.09,2.45-9.09,6.22s3.59,6.22,8.88,6.22c4.98,0,8.65-1.57,8.86-5.09v-1.67c0-.05-.04-.09-.09-.09h-9.1s-.07.03-.07.07Z"/>
    <path class="st0" d="M220.64,133.59l-8.15-11.71s-.05-.05-.09-.05h-2.75s-.07.02-.09.05l-8.15,11.71c-.04.06,0,.13.08.13h2.16c.05,0,.1-.03.12-.07l2.17-2.79s.07-.06.11-.06h9.94s.09.02.11.06l2.17,2.79s.07.07.12.07h2.16c.07,0,.11-.07.08-.13ZM215.07,129.22h-8.1c-.07,0-.11-.07-.07-.13l4.02-5.71c.05-.08.16-.08.21,0l4.02,5.71c.03.06,0,.13-.07.13Z"/>
  </g>
</svg>
