<svg width="60" height="60" viewBox="0 0 60 60" fill="none" xmlns="http://www.w3.org/2000/svg">
<g id="Logo" clip-path="url(#clip0_4430_27)">
<path id="Path 30" d="M60.0003 30.0002C60.0003 38.2568 51.8556 40.9237 46.459 46.3477C41.0255 51.8095 38.3134 60.0002 30.0007 60.0002C21.7193 60.0002 19.0267 51.832 13.5987 46.4032C8.17081 40.9744 0.00195312 38.2825 0.00195312 30.001C0.00195312 21.7195 8.17079 19.0276 13.5995 13.5987C19.0283 8.16993 21.7202 0.000976562 30.0016 0.000976562C38.2572 0.000976562 40.9241 8.14662 46.348 13.5433C51.8097 18.9745 60.0003 21.6873 60.0003 30.0002Z" fill="#1B4633"/>
<g id="Group 31">
<path id="Path 31" d="M40.859 34.8315H42.7549C42.8487 34.8315 42.9387 34.7942 43.0051 34.7279C43.0714 34.6615 43.1087 34.5715 43.1087 34.4777V25.3447C43.1087 25.2509 43.0714 25.1609 43.0051 25.0946C42.9387 25.0282 42.8487 24.991 42.7549 24.991H40.859C40.8125 24.9907 40.7664 24.9997 40.7233 25.0174C40.6803 25.0352 40.6413 25.0612 40.6084 25.0941C40.5755 25.127 40.5495 25.1661 40.5318 25.2091C40.5141 25.2521 40.5051 25.2982 40.5053 25.3447V25.7805C39.5862 25.0396 38.4311 24.6546 37.2514 24.6959C36.6152 24.6954 35.9859 24.8276 35.4036 25.0839C34.8213 25.3403 34.2989 25.7153 33.8696 26.1849C33.3907 26.6794 33.0158 27.2649 32.7673 27.9068C32.5187 28.5487 32.4015 29.234 32.4225 29.9221C32.4008 30.608 32.5172 31.2913 32.7645 31.9315C33.0119 32.5716 33.3852 33.1556 33.8625 33.6488C34.2939 34.1175 34.8183 34.4912 35.4022 34.7459C35.9861 35.0007 36.6167 35.1308 37.2538 35.1282C38.4296 35.1655 39.5812 34.7888 40.5076 34.0636V34.4785C40.5078 34.5718 40.5449 34.6612 40.6107 34.7273C40.6765 34.7934 40.7657 34.8309 40.859 34.8315ZM39.657 32.0407C39.4023 32.3001 39.0986 32.506 38.7634 32.6466C38.4282 32.7871 38.0683 32.8594 37.7048 32.8592C37.3372 32.8708 36.9711 32.8058 36.6299 32.6683C36.2887 32.5309 35.9799 32.324 35.723 32.0608C35.4571 31.7741 35.2513 31.4371 35.1175 31.0697C34.9837 30.7023 34.9246 30.3118 34.9439 29.9213C34.9253 29.5293 34.9845 29.1376 35.1183 28.7687C35.252 28.3998 35.4575 28.0611 35.723 27.7721C35.9783 27.506 36.2866 27.2965 36.628 27.1572C36.9694 27.0178 37.3363 26.9518 37.7048 26.9632C38.0692 26.9632 38.4298 27.0365 38.7652 27.1787C39.1006 27.321 39.4038 27.5294 39.657 27.7914C39.9382 28.0683 40.1589 28.4006 40.3049 28.7672C40.451 29.1339 40.5192 29.5269 40.5053 29.9213C40.5194 30.3146 40.4509 30.7066 40.3041 31.0718C40.1573 31.437 39.9354 31.7674 39.653 32.0415L39.657 32.0407Z" fill="white"/>
<path id="Path 32" d="M21.4586 24.991H18.8761C18.8222 24.9914 18.7691 25.004 18.7208 25.0278C18.6725 25.0516 18.6302 25.086 18.597 25.1285C17.3765 26.6915 16.2734 27.8003 14.7812 28.2007V22.5427C14.7812 22.4491 14.744 22.3592 14.6778 22.2929C14.6117 22.2265 14.5219 22.1892 14.4282 22.189H12.5316C12.4851 22.1889 12.439 22.1979 12.396 22.2157C12.353 22.2334 12.3141 22.2595 12.2812 22.2924C12.2483 22.3252 12.2222 22.3643 12.2044 22.4072C12.1867 22.4502 12.1776 22.4963 12.1777 22.5427V34.4746C12.1777 34.5684 12.215 34.6584 12.2814 34.7247C12.3477 34.7911 12.4377 34.8283 12.5316 34.8283H14.4282C14.5219 34.8281 14.6117 34.7908 14.6778 34.7244C14.744 34.6581 14.7812 34.5682 14.7812 34.4746V30.8709C15.0405 30.8256 15.2971 30.766 15.5499 30.6924L18.9935 34.7045C19.0266 34.7433 19.0678 34.7745 19.1142 34.7958C19.1605 34.8172 19.2109 34.8283 19.262 34.8283H21.9748C22.0261 34.8283 22.0762 34.8134 22.1192 34.7855C22.1623 34.7575 22.1962 34.7177 22.2171 34.6708C22.2379 34.6239 22.2448 34.572 22.2367 34.5213C22.2287 34.4707 22.2061 34.4234 22.1717 34.3853L17.8517 29.582C19.227 28.5061 20.4235 27.2192 21.3967 25.7693L21.5293 25.59L21.6765 25.393C21.7011 25.3536 21.7147 25.3084 21.7161 25.2619C21.7176 25.2155 21.7067 25.1695 21.6845 25.1286C21.6624 25.0877 21.6298 25.0535 21.5901 25.0293C21.5504 25.0051 21.5051 24.9919 21.4586 24.991Z" fill="white"/>
<path id="Path 33" d="M27.34 32.7409C26.9737 32.7556 26.6084 32.6939 26.2672 32.5598C25.926 32.4257 25.6164 32.222 25.3582 31.9618C25.1016 31.6895 24.9022 31.3686 24.7717 31.018C24.6412 30.6674 24.5823 30.2942 24.5984 29.9204C24.5829 29.5452 24.6421 29.1708 24.7725 28.8187C24.9029 28.4666 25.102 28.1439 25.3582 27.8693C25.615 27.6065 25.924 27.4006 26.2654 27.2647C26.6068 27.1288 26.9729 27.0661 27.34 27.0806C27.7574 27.0499 28.175 27.1376 28.5448 27.3336C28.9146 27.5296 29.2216 27.8259 29.4306 28.1885C29.4797 28.2656 29.5571 28.3202 29.6462 28.3405C29.7353 28.3608 29.8288 28.3452 29.9065 28.2971L31.4535 27.3837C31.4949 27.36 31.5311 27.328 31.5599 27.2899C31.5886 27.2518 31.6093 27.2082 31.6207 27.1618C31.6321 27.1154 31.6341 27.0672 31.6263 27.0201C31.6186 26.9729 31.6013 26.9279 31.5757 26.8876C31.2647 26.4254 30.8766 26.0202 30.4283 25.6896C29.5363 25.0285 28.4519 24.6788 27.3417 24.6942C26.6524 24.6786 25.9669 24.8004 25.3253 25.0526C24.6836 25.3048 24.0987 25.6824 23.6046 26.1632C23.1008 26.6474 22.7046 27.2321 22.4414 27.8794C22.1782 28.5267 22.0541 29.222 22.077 29.9204C22.0537 30.6173 22.1776 31.3112 22.4408 31.9569C22.7041 32.6025 23.1006 33.1853 23.6046 33.6672C24.1001 34.1454 24.6856 34.5206 25.327 34.771C25.9685 35.0215 26.6533 35.1423 27.3417 35.1265C28.4718 35.1435 29.5765 34.7902 30.487 34.1207C30.9268 33.7983 31.3046 33.3989 31.6022 32.942C31.627 32.902 31.6435 32.8575 31.6507 32.811C31.658 32.7645 31.6558 32.717 31.6444 32.6714C31.6329 32.6258 31.6123 32.583 31.5839 32.5455C31.5555 32.508 31.52 32.4765 31.4792 32.4531L29.9579 31.555C29.8795 31.5065 29.7857 31.4896 29.6954 31.5078C29.605 31.526 29.5249 31.578 29.4715 31.6531C29.2442 32.0067 28.9272 32.2937 28.5527 32.4849C28.1783 32.676 27.7598 32.7643 27.34 32.7409Z" fill="white"/>
<path id="Rectangle 12" d="M46.7935 22.1924H46.2435C45.6765 22.1924 45.2168 22.6521 45.2168 23.2191V33.805C45.2168 34.3721 45.6765 34.8317 46.2435 34.8317H46.7935C47.3605 34.8317 47.8202 34.3721 47.8202 33.805V23.2191C47.8202 22.6521 47.3605 22.1924 46.7935 22.1924Z" fill="white"/>
</g>
</g>
<defs>
<clipPath id="clip0_4430_27">
<rect width="60" height="60" fill="white"/>
</clipPath>
</defs>
</svg>
