<svg width="200" height="47" viewBox="0 0 200 47" fill="none" xmlns="http://www.w3.org/2000/svg">
<path d="M49.6016 33.0448C50.3867 32.7997 50.9011 32.2552 51.1448 31.4656C51.3885 30.6487 51.4968 29.3963 51.4968 27.6809V6.49769C51.4968 4.78234 51.3885 3.52987 51.1448 2.71303C50.9011 1.8962 50.3867 1.37887 49.6016 1.13382V0.453125H58.4008V1.10659C57.6156 1.35164 57.1012 1.8962 56.8576 2.6858C56.6139 3.50264 56.5056 4.75512 56.5056 6.47047V17.6339L67.9852 5.78977C69.5014 4.23779 70.3136 3.06699 70.449 2.30461C70.5844 1.51501 70.1241 1.05214 69.1223 0.915997V0.453125H76.5408V1.10659C75.5932 1.35164 74.5914 1.73283 73.4813 2.1957C72.3713 2.65858 71.2612 3.52987 70.0429 4.75512L59.9711 15.1289L61.1624 15.0744C62.9223 14.9928 64.3843 15.0744 65.5214 15.3467C66.6586 15.619 67.6332 16.1363 68.4184 16.8987C69.2306 17.6339 69.9346 18.6413 70.5573 19.921C71.18 21.2007 71.8298 22.7799 72.5608 24.6859C73.2648 26.4829 73.8333 27.9532 74.2936 29.0423C74.7539 30.1314 75.16 30.9755 75.5119 31.5745C75.8639 32.1735 76.2159 32.5819 76.5137 32.7725C76.8115 32.9631 77.1635 33.0448 77.5425 33.0448C77.6779 33.0448 77.7862 33.0448 77.8674 33.0448C77.9487 33.0448 78.084 33.0176 78.2465 32.9903V33.6983C77.705 33.8616 77.1635 33.9433 76.622 33.9705C76.0805 33.9978 75.539 34.025 75.0517 34.025C74.077 34.025 73.2918 33.9433 72.6691 33.7527C72.0464 33.5621 71.5049 33.1809 71.0176 32.5819C70.5302 31.9829 70.0429 31.1661 69.5826 30.1042C69.1223 29.0423 68.4996 27.6537 67.7957 25.9111C67.0376 24.0868 66.4149 22.5076 65.9275 21.2552C65.4402 19.9755 64.9258 18.968 64.4114 18.1784C63.8969 17.3888 63.3013 16.817 62.6515 16.4631C62.0017 16.1091 61.1353 15.9457 60.0794 15.9457H59.2401L56.5327 18.7502V27.6809C56.5327 29.3963 56.641 30.6487 56.8846 31.4656C57.1283 32.2824 57.6427 32.7997 58.4279 33.0448V33.6983H49.6286V33.0448H49.6016Z" fill="#F0EDF2"/>
<path d="M90.5367 34.1883C89.2101 34.1883 87.8834 33.9432 86.5568 33.4803C85.2301 33.0175 84.0388 32.2823 82.9559 31.3293C81.8729 30.3764 81.0065 29.1783 80.3296 27.7625C79.6528 26.3467 79.3008 24.6585 79.3008 22.7254C79.3008 20.7105 79.6528 18.8862 80.3838 17.2526C81.1148 15.6461 82.0624 14.2575 83.2266 13.1139C84.3908 11.9704 85.7175 11.0991 87.2066 10.5001C88.6957 9.90107 90.2118 9.60156 91.7551 9.60156C93.3525 9.60156 94.7604 9.84661 95.9787 10.3639C97.1971 10.8813 98.1988 11.5347 99.0382 12.3243C99.8504 13.1412 100.473 14.0397 100.906 15.0471C101.34 16.0545 101.556 17.0892 101.556 18.1239H83.6327C83.6056 18.3689 83.5786 18.6412 83.5515 18.8862C83.5244 19.1313 83.5244 19.4036 83.5244 19.6486C83.5244 21.2006 83.741 22.6164 84.2013 23.9234C84.6616 25.2303 85.3113 26.3467 86.1507 27.2996C86.99 28.2526 88.0188 28.9878 89.2101 29.5051C90.4014 30.0224 91.7551 30.2947 93.2713 30.2947C95.0311 30.2947 96.5744 29.9407 97.9281 29.26C99.2548 28.5521 100.446 27.6536 101.448 26.5373L101.881 27.0001C101.339 27.817 100.717 28.661 99.9587 29.5323C99.2277 30.3764 98.3884 31.166 97.4408 31.8467C96.4931 32.5274 95.4372 33.0719 94.3001 33.5076C93.19 33.9977 91.9175 34.1883 90.5367 34.1883ZM96.7639 17.5249C96.6014 16.5447 96.3307 15.6189 95.9517 14.8021C95.5726 13.958 95.1123 13.2229 94.5438 12.5966C93.9752 11.9704 93.3254 11.4531 92.5944 11.0719C91.8634 10.6907 91.1053 10.5001 90.266 10.5001C89.2642 10.5001 88.3708 10.6907 87.6127 11.0719C86.8546 11.4531 86.2048 11.9704 85.6633 12.6238C85.1218 13.2773 84.6886 14.0125 84.3637 14.8838C84.0388 15.7278 83.8222 16.6263 83.6598 17.5521H96.7639V17.5249Z" fill="#F0EDF2"/>
<path d="M103.942 42.8988C102.967 42.926 102.155 42.8171 101.478 42.5176C100.829 42.2453 100.477 41.8641 100.477 41.374C100.477 41.1562 100.558 40.8567 100.72 40.5299C100.883 40.176 101.099 39.8492 101.397 39.5225C101.695 39.1958 102.047 38.9235 102.48 38.7057C102.913 38.4879 103.401 38.3789 103.969 38.3789C104.673 38.3789 105.594 38.4606 106.785 38.6512C107.976 38.8146 109.168 39.0324 110.413 39.2502C110.981 38.624 111.55 37.8616 112.092 36.9631C112.633 36.0646 113.175 35.0844 113.716 33.968L105.783 15.5348C105.133 13.9556 104.484 12.812 103.834 12.0769C103.211 11.369 102.615 10.8789 102.074 10.6338V9.98035H110.467V10.6338C110.088 10.77 109.844 10.9333 109.709 11.1511C109.574 11.369 109.547 11.6685 109.628 12.0497C109.709 12.4309 109.871 12.8937 110.088 13.4383C110.332 13.9828 110.602 14.6635 110.954 15.4531L116.342 27.8146L121.649 15.5076C122.299 13.9012 122.597 12.7304 122.488 11.9952C122.407 11.2601 121.947 10.7972 121.107 10.6066V9.95312H126.495V10.6066C125.764 10.8516 125.087 11.3417 124.41 12.0224C123.761 12.7304 123.084 13.8739 122.38 15.4531L115.205 32.3071C114.312 34.4037 113.445 36.119 112.552 37.4532C111.658 38.7874 110.765 39.8765 109.844 40.6933C108.924 41.5101 108.003 42.0547 107.029 42.3814C106.081 42.6809 105.052 42.8715 103.942 42.8988Z" fill="#F0EDF2"/>
<path d="M140.301 34.1608C139.191 34.1608 138.162 34.0247 137.188 33.7252C136.213 33.4529 135.319 33.0717 134.48 32.5816V40.5321C134.48 42.2475 134.588 43.4999 134.832 44.3168C135.076 45.1336 135.59 45.6509 136.375 45.896V46.5494H127.766V45.896C128.551 45.6509 129.065 45.1064 129.309 44.3168C129.553 43.4999 129.661 42.2475 129.661 40.5321V16.7622C129.661 16.0543 129.634 15.4825 129.553 15.0469C129.471 14.6112 129.336 14.2573 129.174 14.0122C129.011 13.7672 128.794 13.5494 128.551 13.386C128.307 13.2226 128.063 13.0865 127.766 12.9503V12.2969L133.993 9.54688L134.453 9.92806V13.0048C135.726 12.1063 137.079 11.3439 138.595 10.6632C140.085 9.98252 141.655 9.62856 143.306 9.62856C144.796 9.62856 146.122 9.92806 147.313 10.4998C148.505 11.0989 149.507 11.8885 150.319 12.8959C151.131 13.9033 151.781 15.1286 152.241 16.5444C152.701 17.9603 152.918 19.4578 152.918 21.0915C152.918 22.8885 152.62 24.6038 152.052 26.2103C151.456 27.8167 150.617 29.2053 149.534 30.3761C148.424 31.5469 147.097 32.4727 145.554 33.1534C144.01 33.8068 142.251 34.1608 140.301 34.1608ZM134.48 25.7746C134.48 26.5915 134.724 27.4355 135.184 28.3068C135.644 29.1781 136.267 29.9677 136.998 30.7029C137.729 31.438 138.568 32.037 139.489 32.4999C140.409 32.9628 141.303 33.2078 142.196 33.2078C143.496 33.2078 144.525 32.9628 145.337 32.4727C146.149 31.9826 146.772 31.3291 147.259 30.5395C147.72 29.7499 148.044 28.8242 148.234 27.8167C148.396 26.7821 148.505 25.7202 148.505 24.6583C148.505 23.5692 148.396 22.2895 148.18 20.8192C147.963 19.3217 147.53 17.9058 146.934 16.5172C146.312 15.1286 145.472 13.9578 144.362 13.0048C143.252 12.0518 141.817 11.5617 140.057 11.5617C139.029 11.5617 138.054 11.7796 137.133 12.2152C136.213 12.6508 135.347 13.1682 134.534 13.7944V25.7746H134.48Z" fill="#F0EDF2"/>
<path d="M167.107 34.1883C165.78 34.1883 164.454 33.9432 163.127 33.4803C161.8 33.0175 160.609 32.2823 159.526 31.3293C158.443 30.3764 157.577 29.1783 156.9 27.7625C156.223 26.3467 155.871 24.6585 155.871 22.7254C155.871 20.7105 156.223 18.8862 156.954 17.2526C157.685 15.6461 158.633 14.2575 159.797 13.1139C160.961 11.9704 162.288 11.0991 163.777 10.5001C165.266 9.90107 166.782 9.60156 168.325 9.60156C169.923 9.60156 171.331 9.84661 172.549 10.3639C173.767 10.8813 174.769 11.5347 175.608 12.3243C176.421 13.1412 177.043 14.0397 177.477 15.0471C177.91 16.0545 178.126 17.0892 178.126 18.1239H160.203C160.176 18.3689 160.149 18.6412 160.122 18.8862C160.095 19.1313 160.095 19.4036 160.095 19.6486C160.095 21.2006 160.311 22.6164 160.772 23.9234C161.232 25.2303 161.882 26.3467 162.721 27.2996C163.56 28.2526 164.589 28.9878 165.78 29.5051C166.972 30.0224 168.325 30.2947 169.842 30.2947C171.601 30.2947 173.145 29.9407 174.498 29.26C175.825 28.5521 177.016 27.6536 178.018 26.5373L178.451 27.0001C177.91 27.817 177.287 28.661 176.529 29.5323C175.798 30.3764 174.959 31.166 174.011 31.8467C173.063 32.5274 172.008 33.0719 170.87 33.5076C169.76 33.9977 168.488 34.1883 167.107 34.1883ZM173.334 17.5249C173.172 16.5447 172.901 15.6189 172.522 14.8021C172.143 13.958 171.683 13.2229 171.114 12.5966C170.546 11.9704 169.896 11.4531 169.165 11.0719C168.434 10.6907 167.676 10.5001 166.836 10.5001C165.835 10.5001 164.941 10.6907 164.183 11.0719C163.425 11.4531 162.775 11.9704 162.234 12.6238C161.692 13.2773 161.259 14.0125 160.934 14.8838C160.609 15.7278 160.393 16.6263 160.23 17.5521H173.334V17.5249Z" fill="#F0EDF2"/>
<path d="M180.996 33.0445C181.781 32.7994 182.295 32.2549 182.539 31.4653C182.782 30.6484 182.891 29.3959 182.891 27.6806V16.7622C182.891 16.0543 182.864 15.4825 182.782 15.0469C182.701 14.6112 182.566 14.2573 182.403 14.0122C182.241 13.7672 182.024 13.5494 181.781 13.386C181.537 13.2226 181.293 13.0865 180.996 12.9503V12.2969L187.223 9.54688L187.683 9.92806V15.6731C188.414 13.9578 189.551 12.5692 191.121 11.48C192.015 10.8538 192.908 10.3909 193.829 10.0914C194.749 9.79193 195.778 9.62856 196.915 9.62856C197.728 9.62856 198.432 9.73747 199.054 9.95529C199.65 10.1731 199.948 10.5543 199.948 11.0444C199.948 11.2895 199.894 11.6162 199.758 11.9701C199.623 12.3241 199.433 12.6781 199.163 13.0048C198.892 13.3315 198.567 13.6038 198.134 13.8216C197.728 14.0395 197.24 14.1484 196.726 14.1484C196.076 14.1484 195.264 14.0395 194.289 13.7944C193.314 13.5494 192.096 13.1954 190.58 12.7325C190.309 12.9776 189.984 13.3043 189.659 13.6855C189.335 14.0667 189.01 14.5023 188.739 14.9652C188.468 15.4281 188.197 15.9454 188.008 16.5172C187.791 17.0617 187.683 17.6608 187.656 18.2598V27.6806C187.656 29.3959 187.764 30.6484 188.008 31.4653C188.252 32.2821 188.766 32.7994 189.551 33.0445V33.6979H180.941V33.0445H180.996Z" fill="#F0EDF2"/>
<path d="M37.2557 28.0844V32.7948L19.5218 23.374L1.67969 32.7948V28.0844L19.5218 18.5547L37.2557 28.0844Z" fill="#F0EDF2"/>
<path d="M10.043 30.947L19.5191 25.8281L29.1035 30.947V33.7242H10.043V30.947Z" fill="#F0EDF2"/>
<path d="M21.6595 0.476562V17.2217L19.5206 16.0781L17.2734 17.2761V0.476562H21.6595Z" fill="#F0EDF2"/>
<path d="M39.1751 13.4343L26.9103 20.0506L22.6055 17.7363L37.307 9.92188L39.1751 13.4343Z" fill="#F0EDF2"/>
<path d="M16.4614 17.709L12.1565 19.9962L0 13.4343L1.86815 9.92188L16.4614 17.709Z" fill="#F0EDF2"/>
</svg>
