<?xml version="1.0" encoding="UTF-8"?>
<svg xmlns="http://www.w3.org/2000/svg" xmlns:xlink="http://www.w3.org/1999/xlink" id="Layer_1" version="1.1" viewBox="0 0 167.7 73.1">
  <defs>
    <style>
      .st0 {
        fill: url(#linear-gradient2);
      }

      .st1 {
        fill: url(#linear-gradient1);
      }

      .st2 {
        fill: url(#linear-gradient);
      }

      .st3 {
        fill: #c93828;
      }

      .st4 {
        fill: none;
        stroke: #1a3150;
        stroke-miterlimit: 10;
        stroke-width: .2px;
      }

      .st5 {
        font-family: MADETOMMY, 'MADE TOMMY';
        font-size: 5.8px;
      }

      .st5, .st6 {
        fill: #1a3150;
      }
    </style>
    <linearGradient id="linear-gradient" x1="45.9" y1="54.6" x2="12.9" y2="9.2" gradientUnits="userSpaceOnUse">
      <stop offset="0" stop-color="#c93828"></stop>
      <stop offset="1" stop-color="#1a3150"></stop>
    </linearGradient>
    <linearGradient id="linear-gradient1" x1="10.9" y1="7.1" x2="25" y2="56.4" xlink:href="#linear-gradient"></linearGradient>
    <linearGradient id="linear-gradient2" x1="15.5" y1="5.7" x2="29.6" y2="55.1" xlink:href="#linear-gradient"></linearGradient>
  </defs>
  <g>
    <path class="st6" d="M99.3,18.6c-1.1-1.3-2.7-2-5-2s-1.6.1-2.3.3c-.7.2-1.3.5-1.8.9-.5.4-1,.8-1.4,1.3-.4.4-.7.8-.9,1.2v-11.9h0c-.2,0-.4,0-.7,0-.3,0-.5,0-.6,0s-.4,0-.6,0c-.3,0-.5,0-.6,0h0v28.2h0c.2,0,.4,0,.7,0,.3,0,.5,0,.6,0s.4,0,.6,0c.3,0,.5,0,.6,0h0v-9.9c0-1.3.2-2.4.5-3.4.3-1,.8-1.8,1.3-2.4.6-.6,1.2-1.1,2-1.5.8-.3,1.6-.5,2.5-.5,1.3,0,2.4.5,3.1,1.4.7.9,1.1,2.5,1.1,4.6v11.6h0c.2,0,.4,0,.7,0,.3,0,.5,0,.6,0s.4,0,.6,0c.3,0,.5,0,.6,0h0v-12.4c0-2.4-.5-4.3-1.6-5.7Z"></path>
    <path class="st6" d="M118.7,16.9c-.3,0-.5,0-.6,0s-.3,0-.6,0c-.3,0-.5,0-.7,0h0v17.3c-.5.1-1.1.3-1.7.4-.7,0-1.4.1-2.2.1s-1.9,0-2.7-.3c-.8-.2-1.4-.5-2-1-.5-.5-1-1.2-1.2-2-.3-.9-.4-2-.4-3.4v-11h0c-.2,0-.4,0-.6,0-.3,0-.5,0-.6,0s-.3,0-.6,0c-.3,0-.5,0-.7,0h0v11.2c0,1.8.2,3.3.7,4.5.5,1.2,1.1,2.1,1.9,2.7.8.7,1.7,1.1,2.8,1.3,1.1.2,2.2.3,3.4.3s2.4,0,3.6-.3c1.2-.2,2.2-.4,3.2-.7h0v-19.1h0c-.2,0-.4,0-.6,0Z"></path>
    <path class="st6" d="M131.5,17h0c-.2,0-.3,0-.5,0h-.4c-1.5,0-2.7.3-3.7,1-.9.6-1.6,1.4-2.1,2.2,0-.4,0-.9,0-1.5,0-.6,0-1.2-.1-1.6h0s0,0,0,0c-.2,0-.4,0-.6,0-.3,0-.7,0-1.1,0-.2,0-.4,0-.6,0h0v19.6h0c.2,0,.4,0,.7,0,.3,0,.5,0,.6,0s.4,0,.6,0c.3,0,.5,0,.6,0h0v-10.1c0-2.5.5-4.4,1.6-5.4,1-1.1,2.4-1.6,4.1-1.6h.4c.1,0,.3,0,.5,0h0s0,0,0,0c0-.4.1-.8.1-1.2s0-.8-.1-1.2h0Z"></path>
    <path class="st6" d="M140,16.5c-1,0-2,0-3,.2-1,.1-1.8.3-2.5.5h0c0,.4,0,.9.1,1.3,0,.4.2.8.3,1h0s0,0,0,0c.7-.2,1.4-.4,2.3-.5.8-.1,1.8-.2,2.8-.2,1.5,0,2.7.4,3.5,1.2.8.8,1.2,2,1.2,3.7v1.1c-.4,0-1-.1-1.6-.2-.7,0-1.5,0-2.4,0s-2.3.1-3.2.4c-1,.3-1.8.7-2.5,1.3-.7.6-1.3,1.2-1.7,2-.4.8-.6,1.7-.6,2.8,0,2.1.7,3.7,2.1,4.6,1.4.9,3.3,1.4,5.6,1.4s2.4,0,3.6-.3c1.3-.2,2.4-.4,3.3-.5h0v-12.9c0-2.3-.6-4.1-1.8-5.1-1.2-1.1-3.1-1.6-5.5-1.6ZM144.7,27.1v7.2c-.6.1-1.3.2-2,.3-.7,0-1.4.1-2.2.1s-1.2,0-1.8-.1c-.6,0-1.2-.3-1.7-.5-.5-.3-.9-.6-1.2-1.1-.3-.5-.5-1.2-.5-2,0-1.3.5-2.3,1.5-3,1-.7,2.5-1.1,4.4-1.1s1.2,0,1.9,0c.6,0,1.2.1,1.6.2Z"></path>
    <path class="st6" d="M162.1,18.2c-1.2-1.1-3.1-1.6-5.5-1.6s-2,0-3,.2c-1,.1-1.8.3-2.5.5h0c0,.4,0,.9.1,1.3,0,.4.2.8.3,1h0s0,0,0,0c.7-.2,1.4-.4,2.3-.5.8-.1,1.8-.2,2.8-.2,1.5,0,2.7.4,3.5,1.2.8.8,1.2,2,1.2,3.7v1.1c-.4,0-1-.1-1.6-.2-.7,0-1.5,0-2.4,0s-2.3.1-3.2.4c-1,.3-1.8.7-2.5,1.3-.7.6-1.3,1.2-1.7,2-.4.8-.6,1.7-.6,2.8,0,2.1.7,3.7,2.1,4.6,1.4.9,3.3,1.4,5.6,1.4s2.4,0,3.6-.3c1.3-.2,2.4-.4,3.3-.5h0v-12.9c0-2.3-.6-4.1-1.8-5.1ZM152.3,32.9c-.3-.5-.5-1.2-.5-2,0-1.3.5-2.3,1.5-3,1-.7,2.5-1.1,4.4-1.1s1.2,0,1.9,0c.6,0,1.2.1,1.6.2v7.2c-.6.1-1.3.2-2,.3-.7,0-1.4.1-2.2.1s-1.2,0-1.8-.1c-.6,0-1.2-.3-1.7-.5-.5-.3-.9-.6-1.2-1.1Z"></path>
    <path class="st6" d="M75.1,21.1v3c2.4,1,4.3,2.2,4.3,4.8s-2.4,5.3-5.9,5.3-5.5-1.4-7.3-4.3l-2.5,1.9c2.3,3.2,5.4,5.1,9.9,5.1s9-3.9,9-8-3.6-6.5-7.3-7.8Z"></path>
    <g>
      <path class="st3" d="M72.6,23.2c.1,0,.3,0,.4.1v-3c-2.8-1-5.2-2.2-5.2-4.9s2.4-4.6,5.5-4.6,4.9,1.1,6.3,3.3l2.4-1.8c-2-2.6-4.7-4.2-8.6-4.2s-8.6,3.2-8.6,7.2,4,6.5,7.8,7.8Z"></path>
      <path class="st3" d="M72.8,13.3c0,1.3-1.1,2.4-2.4,2.4s-2.4-1.1-2.4-2.4,1.1-2.4,2.4-2.4,2.4,1.1,2.4,2.4Z"></path>
    </g>
    <path class="st6" d="M79.2,31.3c0,1.3-1.1,2.4-2.4,2.4s-2.4-1.1-2.4-2.4,1.1-2.4,2.4-2.4,2.4,1.1,2.4,2.4Z"></path>
    <path class="st6" d="M67.5,53c-1.5,0-2.5-.4-3.1-1.3-.9-1.3-.3-3-.3-3.1l1.1.4s-.4,1.3.2,2.1c.4.5,1.1.8,2.2.8h2.7c.2,0,1.3-.1,1.3-1.4,0-.2,0-1.4-1.5-1.4h-2.6v-2.2c0-.7.6-1.8,2.3-1.8s2.3.5,2.3,1.7h-1.1c0-.5-1.1-.5-1.2-.5-1,0-1.1.6-1.2.8v1h1.4c2.2,0,2.7,1.9,2.7,2.6,0,1.9-1.6,2.5-2.4,2.6h-2.8Z"></path>
    <path class="st6" d="M75,53c-.4,0-.8,0-1.3-.2l.3-1.1c.5.2,1.3.3,1.8,0,.5-.4.5-1.1.5-1.1v-4.9h1.1v4.9c0,0,0,1.3-1,2-.4.3-.9.4-1.5.4Z"></path>
    <path class="st6" d="M81.9,53c-.6,0-1.1-.1-1.2-.2l.3-1.1c.4.1,1.4.3,1.9-.1.2-.1.3-.3.4-.6h-1.3c-1.9,0-2.6-1.8-2.7-2.8,0-2.3,1.7-3,2.5-3.1h2.6s0,4.7,0,4.7h67.5c.1,0,1.3,0,1.3-.9h1.1c0,1.6-1.6,2-2.4,2h-67.6c-.1.6-.4,1.1-.8,1.5-.5.4-1.1.5-1.7.5ZM81.9,46.3c-.2,0-1.4.2-1.4,1.9,0,.1.2,1.7,1.5,1.7h1.3v-3.6h-1.4Z"></path>
    <path class="st6" d="M161.1,51.1h-.6c-.8,0-1.4-.2-1.9-.7-.6-.6-.6-1.4-.6-1.4v-3.3h1.1v3.3c0,.2.1,1,1.3,1,.2,0,.5,0,1.1,0,.2,0,1.1,0,1.1-1v-3.3h1.1v3.3c0,1.5-1.4,2.1-2.3,2.1-.2,0-.3,0-.5,0h0Z"></path>
    <path class="st6" d="M156.4,51.1h-.6c-.8,0-1.4-.2-1.9-.7-.6-.6-.6-1.4-.6-1.4v-3.3h1.1v3.3c0,.2.1,1,1.3,1,.2,0,.5,0,1.1,0,.2,0,1.1,0,1.1-1v-3.3h1.1v3.3c0,1.5-1.4,2.1-2.3,2.1-.2,0-.3,0-.5,0h0Z"></path>
    <g>
      <g>
        <rect class="st3" x="156.7" y="43.2" width="1.3" height="1.3"></rect>
        <rect class="st3" x="159.2" y="43.2" width="1.3" height="1.3"></rect>
      </g>
      <rect class="st3" x="157.9" y="41.2" width="1.3" height="1.3"></rect>
    </g>
    <g>
      <path class="st3" d="M94.4,47.6c0,.5-.3,1-1.2,1s-1.1-.2-1.2-.8l.5-.2c0,.2.3.5.8.5s.7-.2.7-.5-.4-.5-1-.6c-.7-.2-.8-.5-.8-1s.5-1,1.1-1,.9.3,1,.7h-.5c0,0-.2-.3-.6-.3s-.6.2-.6.5.4.5.9.6c.7.2,1,.4,1,.9Z"></path>
      <path class="st3" d="M98.7,45.2v3.4h-.5v-3.4h.5Z"></path>
      <path class="st3" d="M105.4,45.2v3.4h-.4l-1.8-2.5v2.5h-.5v-3.4h.4l1.8,2.5v-2.5h.5Z"></path>
      <path class="st3" d="M112,47.7l.4.3c-.3.4-.8.6-1.4.6-1,0-1.7-.8-1.7-1.8s.7-1.8,1.7-1.8,1,.2,1.4.6l-.4.3c-.2-.3-.5-.4-1-.4-.8,0-1.2.7-1.2,1.3s.4,1.3,1.2,1.3.7-.2,1-.4Z"></path>
      <path class="st3" d="M118.1,48.1v.4h-1.9v-3.4h1.9v.4h-1.4v1h1.3v.4h-1.3v1.1h1.4Z"></path>
      <path class="st3" d="M128.7,48.1v.4h-2.1v-.3c.3-.3.4-.5.7-.9.4-.4.8-.9.8-1.3s-.2-.6-.5-.6-.5.3-.6.5h-.5c.1-.7.6-1,1.1-1s1,.4,1,1-.5,1-1.4,2h1.4Z"></path>
      <path class="st3" d="M135.2,46.9c0,.9-.4,1.8-1.3,1.8s-1.3-.9-1.3-1.8.4-1.8,1.3-1.8,1.3.9,1.3,1.8ZM134.7,46.9c0-.6-.2-1.3-.8-1.3s-.8.7-.8,1.3.2,1.3.8,1.3.8-.7.8-1.3Z"></path>
      <path class="st3" d="M141.6,46.9c0,.9-.4,1.8-1.3,1.8s-1.3-.9-1.3-1.8.4-1.8,1.3-1.8,1.3.9,1.3,1.8ZM141.1,46.9c0-.6-.2-1.3-.8-1.3s-.8.7-.8,1.3.2,1.3.8,1.3.8-.7.8-1.3Z"></path>
      <path class="st3" d="M146.6,45.2v3.4h-.5v-2.8l-.7.4-.2-.4,1-.7h.3Z"></path>
    </g>
    <g>
      <path class="st3" d="M67.8,60.9l.6.4c-.5.6-1.2.9-2,.9-1.5,0-2.6-1.1-2.6-2.6s1.1-2.6,2.6-2.6,1.5.4,2,.9l-.6.4c-.3-.4-.8-.7-1.4-.7-1.2,0-1.8,1-1.8,1.9s.7,1.9,1.8,1.9,1.1-.3,1.4-.7Z"></path>
      <path class="st3" d="M72.7,60.3c0,1.1-.8,1.9-1.9,1.9s-1.9-.9-1.9-1.9.8-1.9,1.9-1.9,1.9.9,1.9,1.9ZM72,60.3c0-.7-.5-1.3-1.2-1.3s-1.2.5-1.2,1.3.5,1.3,1.2,1.3,1.2-.5,1.2-1.3Z"></path>
      <path class="st3" d="M78.5,59.8v2.4h-.7v-2.2c0-.5-.3-.9-.8-.9s-.8.4-.8.9v2.2h-.7v-2.2c0-.5-.3-.9-.8-.9s-.8.4-.8.9v2.2h-.7v-3.7h.7v.4c.2-.3.5-.5,1-.5s.8.2,1.1.6c.2-.3.6-.6,1.2-.6s1.3.6,1.3,1.3Z"></path>
      <path class="st3" d="M83.3,60.3c0,1-.7,1.9-1.8,1.9s-1.1-.3-1.3-.6v1.9h-.7v-5h.7v.5c.3-.3.7-.6,1.3-.6,1.1,0,1.8,1,1.8,1.9ZM82.6,60.3c0-.7-.5-1.3-1.2-1.3s-1.3.6-1.3,1.3.5,1.3,1.3,1.3,1.2-.6,1.2-1.3Z"></path>
      <path class="st3" d="M86.9,60v2.2h-.7v-.5c-.2.3-.6.6-1.2.6s-1.3-.4-1.3-1.1c0-1.1,1.4-1.2,1.9-1.2h.6c0-.6-.1-1-.9-1s-.8.2-.9.3l-.5-.4c.4-.4,1-.6,1.5-.6,1.1,0,1.4.7,1.4,1.5ZM86.3,60.5h-.3c-.7,0-1.6,0-1.6.6s.2.6.8.6,1-.4,1.1-.6v-.6Z"></path>
      <path class="st3" d="M91.1,59.9v2.3h-.7v-2.1c0-.5-.2-1-.9-1s-1,.6-1,1v2.1h-.7v-3.7h.7v.5c.2-.3.6-.6,1.1-.6.8,0,1.4.7,1.4,1.5Z"></path>
      <path class="st3" d="M95.1,58.5l-2,5h-.7l.6-1.6-1.5-3.5h.7l1.1,2.6,1-2.6h.7Z"></path>
      <path class="st3" d="M98.4,57.8v1.5h1.9v.7h-1.9v2.2h-.7v-5h2.9v.7h-2.2Z"></path>
      <path class="st3" d="M104.8,60.3c0,1.1-.8,1.9-1.9,1.9s-1.9-.9-1.9-1.9.8-1.9,1.9-1.9,1.9.9,1.9,1.9ZM104.1,60.3c0-.7-.5-1.3-1.2-1.3s-1.2.5-1.2,1.3.5,1.3,1.2,1.3,1.2-.5,1.2-1.3Z"></path>
      <path class="st3" d="M107.4,58.4v.7c-1.1-.1-1.2.7-1.2,1.4v1.6h-.7v-3.7h.7v.6c.2-.5.7-.7,1.2-.7Z"></path>
      <path class="st3" d="M113.3,59.8v2.4h-.7v-2.2c0-.5-.3-.9-.8-.9s-.8.4-.8.9v2.2h-.7v-2.2c0-.5-.3-.9-.8-.9s-.8.4-.8.9v2.2h-.7v-3.7h.7v.4c.2-.3.5-.5,1-.5s.8.2,1.1.6c.2-.3.6-.6,1.2-.6s1.3.6,1.3,1.3Z"></path>
      <path class="st3" d="M117.1,60v2.2h-.7v-.5c-.2.3-.6.6-1.2.6s-1.3-.4-1.3-1.1c0-1.1,1.4-1.2,1.9-1.2h.6c0-.6-.1-1-.9-1s-.8.2-.9.3l-.5-.4c.4-.4,1-.6,1.5-.6,1.1,0,1.4.7,1.4,1.5ZM116.5,60.5h-.3c-.7,0-1.6,0-1.6.6s.2.6.8.6,1-.4,1.1-.6v-.6Z"></path>
      <path class="st3" d="M118.9,59.1v1.6c0,.5,0,.9.6.9s.2,0,.3,0v.6c0,0-.2,0-.4,0-.8,0-1.1-.4-1.1-1.2v-1.8h-.6v-.6h.6v-.8h.7v.8h.8v.6h-.8Z"></path>
      <path class="st3" d="M120.5,57.5c0-.2.2-.4.4-.4s.4.2.4.4-.2.4-.4.4-.4-.2-.4-.4ZM120.6,58.5h.7v3.7h-.7v-3.7Z"></path>
      <path class="st3" d="M125.8,60.3c0,1.1-.8,1.9-1.9,1.9s-1.9-.9-1.9-1.9.8-1.9,1.9-1.9,1.9.9,1.9,1.9ZM125.1,60.3c0-.7-.5-1.3-1.2-1.3s-1.2.5-1.2,1.3.5,1.3,1.2,1.3,1.2-.5,1.2-1.3Z"></path>
      <path class="st3" d="M129.7,59.9v2.3h-.7v-2.1c0-.5-.2-1-.9-1s-1,.6-1,1v2.1h-.7v-3.7h.7v.5c.2-.3.6-.6,1.1-.6.8,0,1.4.7,1.4,1.5Z"></path>
      <path class="st3" d="M135.9,60.8c0,.7-.5,1.5-1.8,1.5s-1.6-.3-1.8-1.1l.7-.2c0,.3.4.7,1.1.7s1-.2,1-.8-.6-.7-1.4-.9c-1-.2-1.2-.8-1.2-1.4s.7-1.4,1.7-1.4,1.3.4,1.5,1.1l-.7.2c-.1-.3-.4-.6-.9-.6s-.9.3-.9.8.6.7,1.3.9c1,.2,1.4.6,1.4,1.4Z"></path>
      <path class="st3" d="M136.6,57.5c0-.2.2-.4.4-.4s.4.2.4.4-.2.4-.4.4-.4-.2-.4-.4ZM136.6,58.5h.7v3.7h-.7v-3.7Z"></path>
      <path class="st3" d="M143.3,59.8v2.4h-.7v-2.2c0-.5-.3-.9-.8-.9s-.8.4-.8.9v2.2h-.7v-2.2c0-.5-.3-.9-.8-.9s-.8.4-.8.9v2.2h-.7v-3.7h.7v.4c.2-.3.5-.5,1-.5s.8.2,1.1.6c.2-.3.6-.6,1.2-.6s1.3.6,1.3,1.3Z"></path>
      <path class="st3" d="M148.1,60.3c0,1-.7,1.9-1.8,1.9s-1.1-.3-1.3-.6v1.9h-.7v-5h.7v.5c.3-.3.7-.6,1.3-.6,1.1,0,1.8,1,1.8,1.9ZM147.4,60.3c0-.7-.5-1.3-1.2-1.3s-1.3.6-1.3,1.3.5,1.3,1.3,1.3,1.2-.6,1.2-1.3Z"></path>
      <path class="st3" d="M149.5,57.1v5h-.7v-5h.7Z"></path>
      <path class="st3" d="M150.4,57.5c0-.2.2-.4.4-.4s.4.2.4.4-.2.4-.4.4-.4-.2-.4-.4ZM150.4,58.5h.7v3.7h-.7v-3.7Z"></path>
      <path class="st3" d="M153,58.5h.8v.6h-.8v3h-.7v-3h-.6v-.6h.6c0-.8.3-1.5,1.3-1.5s.2,0,.2,0v.5s-.1,0-.2,0c-.6,0-.7.4-.7.9Z"></path>
      <path class="st3" d="M154.5,57.5c0-.2.2-.4.4-.4s.4.2.4.4-.2.4-.4.4-.4-.2-.4-.4ZM154.6,58.5h.7v3.7h-.7v-3.7Z"></path>
      <path class="st3" d="M159.5,60.6h-2.9c.1.6.5,1,1.3,1s.8-.2,1-.4l.5.3c-.3.4-.9.7-1.5.7-1.2,0-2-.9-2-1.9s.8-1.9,1.9-1.9,1.9.8,1.8,2.2ZM158.9,60.1c0-.6-.5-1-1.1-1s-1.1.4-1.2,1h2.2Z"></path>
      <path class="st3" d="M163.9,57.1v5h-.7v-.5c-.3.3-.7.6-1.3.6-1.1,0-1.8-1-1.8-1.9s.7-1.9,1.8-1.9,1.1.3,1.3.6v-1.9h.7ZM163.2,60.3c0-.7-.5-1.3-1.3-1.3s-1.2.6-1.2,1.3.5,1.3,1.2,1.3,1.3-.6,1.3-1.3Z"></path>
    </g>
  </g>
  <line class="st4" x1="52.9" y1="19.9" x2="52.9" y2="48.5"></line>
  <text class="st5" transform="translate(2.9 50.4)">
    <tspan x="0" y="0">YEARS</tspan>
  </text>
  <g>
    <path class="st2" d="M39.8,28.8v4.5h-13.2v6h-4.5v-4.1l5.7-6h0s0,0,0,0c0,0,.2-.2.2-.3h11.7Z"></path>
    <path class="st1" d="M42.1,51.5c0,5.9-4.8,10.8-10.8,10.8s-10.8-4.8-10.8-10.8h4.5c0,3.5,2.8,6.3,6.3,6.3s6.3-2.8,6.3-6.3-2.8-6.3-6.3-6.3H2.9l19.8-21s0,0,0,0c1.8-1.9,2.7-3.6,2.7-5.2,0-3.5-2.8-6.3-6.3-6.3s-6.3,2.8-6.3,6.3h-4.5c0-5.9,4.8-10.8,10.8-10.8s10.8,4.8,10.8,10.8-1.3,5.5-3.9,8.2h0s-12.6,13.4-12.6,13.4h17.9c5.9,0,10.8,4.8,10.8,10.8Z"></path>
    <circle class="st0" cx="18" cy="14.4" r="2.5"></circle>
    <circle class="st6" cx="33.5" cy="55.6" r="2.5"></circle>
  </g>
</svg>
